<?xml version="1.0" encoding="utf-8"?>
<!-- Generator: Adobe Illustrator 24.0.2, SVG Export Plug-In . SVG Version: 6.00 Build 0)  -->
<svg version="1.1" xmlns="http://www.w3.org/2000/svg" xmlns:xlink="http://www.w3.org/1999/xlink" x="0px" y="0px"
	 viewBox="0 0 112.5 177.46" style="enable-background:new 0 0 112.5 177.46;" xml:space="preserve">
<style type="text/css">
	.st0{fill:#3E3A36;}
	.st1{fill:#FFB3A9;}
	.st2{clip-path:url(#SVGID_2_);}
	.st3{clip-path:url(#SVGID_4_);}
	.st4{fill:#112129;}
</style>
<g id="OBJECTS">
	<g>
		<g>
			<path class="st0" d="M51.1,55.18l-2.34-0.26c0.01-0.1,0.02-0.21,0.04-0.31c0.7-5.38,2.57-10.25,5.29-13.73
				c2.32-2.98,4.9-4.92,7.67-5.77c1.18-0.36,2.19-0.43,3.09-0.21c1.33,0.32,2.36,1.31,2.61,2.52c0.2,0.95-0.06,1.99-0.79,3.08
				c-1.29,1.95-3.2,3.3-4.9,4.5l-5.53,3.92c-2.39,1.69-4.74,3.55-5.12,6.02C51.12,55.02,51.11,55.1,51.1,55.18z M63.76,37.12
				c-0.38,0-0.81,0.08-1.32,0.23c-2.3,0.7-4.48,2.37-6.5,4.97c-1.39,1.78-2.53,3.97-3.38,6.44c0.75-0.64,1.55-1.22,2.33-1.77
				l5.53-3.92c1.6-1.13,3.25-2.3,4.29-3.88c0.36-0.54,0.51-0.98,0.45-1.29c-0.07-0.31-0.43-0.61-0.87-0.72
				C64.12,37.14,63.95,37.12,63.76,37.12z"/>
		</g>
		<g>
			<path class="st0" d="M46.96,54.11c-0.63,0-1.15-0.49-1.18-1.12c-0.01-0.17-0.02-0.35-0.04-0.52c-0.04-0.14-0.06-0.29-0.05-0.45
				c-0.45-3.42-2.46-6.9-5.99-10.34l-0.4-0.38c-0.78-0.75-1.59-1.53-2.23-2.5c-0.95-1.44-1.3-3-0.97-4.39
				c0.43-1.84,2.11-3.16,3.85-3.02c0.88,0.07,1.73,0.49,2.6,1.27c2.45,2.19,3.52,5.36,4.3,8.47c0.76,3,1.58,6.94,1.21,10.86
				c0.03,0.29,0.06,0.59,0.07,0.88c0.03,0.65-0.47,1.2-1.12,1.23C47,54.11,46.98,54.11,46.96,54.11z M39.7,33.73
				c-0.55,0-1.14,0.55-1.3,1.21c-0.17,0.74,0.06,1.67,0.64,2.54c0.5,0.75,1.18,1.41,1.9,2.1l0.41,0.4c1.56,1.52,2.86,3.07,3.88,4.62
				c-0.2-1.01-0.43-1.98-0.66-2.91c-0.69-2.74-1.61-5.53-3.59-7.29c-0.48-0.43-0.88-0.65-1.22-0.68
				C39.75,33.73,39.72,33.73,39.7,33.73z"/>
		</g>
		<g>
			<g>
				<g>
					<path class="st0" d="M34.3,121.65c-5.17,0-10.87-1.07-14.27-3.77c-1.92-1.52-3-3.42-3.21-5.66c-0.06-0.65,0.42-1.22,1.06-1.28
						c0.64-0.06,1.22,0.42,1.28,1.06c0.15,1.59,0.91,2.91,2.33,4.03c3.78,2.99,11.52,3.76,17.21,2.97c2.32-0.32,4.26-1,5.77-2.01
						c1.73-1.16,2.92-2.83,3.27-4.58c0.13-0.64,0.74-1.05,1.39-0.93c0.64,0.13,1.05,0.75,0.93,1.39c-0.47,2.36-2.02,4.57-4.26,6.08
						c-1.8,1.21-4.08,2.02-6.76,2.39C37.57,121.54,35.96,121.65,34.3,121.65z"/>
				</g>
				<g>
					<g>
						<path class="st0" d="M50.98,133.63c-9.17,0-18.63-0.3-28.01-1.25c-3.89-0.4-8.3-1.07-11.32-4.02c-2.17-2.12-3.2-5-3.98-7.79
							c-4.36-15.49-3.1-32.8,3.45-47.5c1.21-2.72,2.96-6.18,5.71-8.81c5.4-5.16,13.29-6.19,21-6.53c4.52-0.2,8.92-0.21,13.08-0.01
							c2.98,0.14,6.48,0.43,9.87,1.48c9.24,2.88,16.93,11.64,20.07,22.84c2.89,10.35,1.99,21.31,0.91,30.78
							c-0.34,3-0.36,5.93,1.81,7.07c0.75,0.39,1.71,0.48,2.7,0.26c3.73-0.87,7.38-4.87,6.7-8.93c-0.22-1.31-1.09-2.59-2.32-3.43
							c-1.1-0.75-2.35-1.04-3.43-0.8c-0.68,0.15-1.38-0.15-1.74-0.74c-0.35-0.59-0.3-1.33,0.14-1.86c1.18-1.42,3.18-2.26,5.3-2.28
							c1.88,0.01,3.56,0.79,5.18,1.55c0.17,0.08,0.33,0.16,0.49,0.23c3.45-2.85,9.1-2.92,12.79-0.03c0.59,0.46,0.77,1.25,0.44,1.92
							c-0.33,0.67-1.08,1.01-1.81,0.82c-1.69-0.44-3.87,0.19-5.3,1.54c-2.03,1.91-2.93,4.78-3.61,7.58c-0.1,0.42-0.2,0.83-0.29,1.25
							c-0.61,2.64-1.24,5.38-2.73,7.78c-2.03,3.29-5.65,5.8-10.19,7.09c-3.97,1.13-8.06,1.25-12.01,1.36
							C66.63,133.41,58.91,133.63,50.98,133.63z M44.59,59.93c-2.18,0-4.4,0.05-6.65,0.15c-7.26,0.33-14.64,1.26-19.48,5.88
							c-2.45,2.34-4.06,5.54-5.19,8.06c-6.33,14.2-7.55,30.93-3.34,45.9c0.7,2.47,1.58,5,3.36,6.74c2.48,2.42,6.42,3,9.91,3.36
							c17.35,1.77,35.03,1.26,50.62,0.81c3.81-0.11,7.75-0.22,11.43-1.27c3.97-1.13,7.1-3.28,8.82-6.06
							c1.28-2.08,1.84-4.5,2.44-7.07c0.1-0.43,0.2-0.85,0.3-1.27c0.72-3.01,1.8-6.41,4.28-8.75c1.11-1.05,2.52-1.77,3.97-2.11
							c-2.63-0.68-5.57-0.07-7.41,1.79l-0.57,0.57l-0.74-0.32c-0.41-0.18-0.83-0.37-1.25-0.57c-1.45-0.68-2.82-1.32-4.19-1.33
							c-0.52,0-1.08,0.08-1.58,0.24c0.91,0.19,1.81,0.58,2.64,1.14c1.79,1.21,3,3.03,3.33,5c0.92,5.47-3.74,10.51-8.5,11.62
							c-1.54,0.36-3.08,0.19-4.33-0.46c-3.9-2.04-3.33-7.03-3.06-9.42c1.05-9.24,1.94-19.94-0.84-29.88
							c-2.92-10.45-10.01-18.58-18.5-21.23c-3.13-0.98-6.44-1.24-9.27-1.38C48.79,59.98,46.71,59.93,44.59,59.93z"/>
					</g>
					<g>
						<path class="st0" d="M47.06,64.33c-0.75,0-1.58-0.06-2.39-0.36c-1.49-0.56-2.46-2.01-2.46-3.62v-1.6
							c0-0.65,0.53-1.18,1.18-1.18s1.18,0.53,1.18,1.18v1.6c0,0.64,0.36,1.2,0.9,1.4c0.63,0.23,1.39,0.23,2.06,0.21
							c0.62-0.02,1.34-0.05,2.02-0.2c0.62-0.13,1.69-0.68,1.91-2.88c0.06-0.65,0.63-1.13,1.29-1.06c0.65,0.06,1.12,0.64,1.06,1.29
							c-0.38,3.83-2.76,4.74-3.77,4.96c-0.86,0.18-1.72,0.23-2.45,0.25C47.42,64.33,47.24,64.33,47.06,64.33z"/>
					</g>
				</g>
				<g>
					<path class="st0" d="M67.6,106.46c-1.12,0-2.17-0.36-2.92-0.66c-1.06-0.43-2.08-0.96-3.03-1.57c-0.41-0.26-0.53-0.81-0.26-1.22
						c0.26-0.41,0.81-0.53,1.22-0.26c0.86,0.55,1.78,1.03,2.73,1.42c1.22,0.49,2.11,0.64,2.88,0.47c0.72-0.16,1.48-0.77,1.46-1.5
						c-0.01-0.15-0.18-0.37-0.41-0.59c-1.52,0.21-2.21-0.37-2.34-1.01c-0.15-0.73,0.23-1.12,0.4-1.25c0.3-0.24,0.85-0.42,1.78,0.01
						c0.18,0.09,0.39,0.2,0.6,0.34c0.35-0.11,0.71-0.29,1.01-0.53c0.51-0.42,0.51-0.83,0.47-1.1c-0.02-0.12-0.23-0.42-0.9-0.75
						c-0.23-0.11-0.47-0.21-0.71-0.28c-0.03,0.01-0.06,0.03-0.09,0.04c-0.12,0.06-0.27,0.14-0.42,0.22
						c-0.7,0.39-1.49,0.83-2.21,0.57c-0.34-0.13-0.61-0.39-0.75-0.75c-0.22-0.57-0.13-1.12,0.25-1.52c0.68-0.73,2-0.64,2.89-0.47
						c0.21-0.2,0.36-0.43,0.4-0.66c0.05-0.27-0.02-0.55-0.23-0.81c-0.37-0.49-1.09-0.86-1.78-0.92c-0.71-0.06-1.45,0.06-2.22,0.19
						c-0.68,0.11-1.39,0.22-2.13,0.22c0,0,0,0,0,0c-0.49,0-0.88-0.4-0.88-0.89c0-0.49,0.4-0.88,0.88-0.88c0,0,0,0,0,0
						c0.59,0,1.2-0.1,1.85-0.2c0.85-0.14,1.73-0.28,2.65-0.2c1.19,0.1,2.36,0.72,3.04,1.61c0.51,0.68,0.71,1.44,0.56,2.22
						c-0.06,0.32-0.18,0.62-0.35,0.91c0.82,0.39,1.72,1.05,1.9,2.05c0.25,1.51-0.63,2.62-1.85,3.26c0.22,0.35,0.36,0.73,0.37,1.13
						c0.04,1.72-1.44,2.97-2.86,3.27C68.26,106.43,67.93,106.46,67.6,106.46z"/>
				</g>
			</g>
			<g>
				<g>
					<g>
						<path class="st0" d="M39.22,89.87c0,1.2-0.67,2.18-1.49,2.18c-0.82,0-1.49-0.98-1.49-2.18c0-1.2,0.67-2.18,1.49-2.18
							C38.56,87.69,39.22,88.66,39.22,89.87z"/>
					</g>
					<g>
						<path class="st0" d="M31.32,89.87c0,1.2-0.67,2.18-1.49,2.18c-0.82,0-1.49-0.98-1.49-2.18c0-1.2,0.67-2.18,1.49-2.18
							C30.66,87.69,31.32,88.66,31.32,89.87z"/>
					</g>
				</g>
				<g>
					<circle class="st1" cx="51.36" cy="100.21" r="4.34"/>
				</g>
				<g>
					<path class="st1" d="M19.87,100.21c0,2.4-1.94,4.34-4.34,4.34c-2.4,0-4.34-1.94-4.34-4.34c0-2.4,1.94-4.34,4.34-4.34
						C17.92,95.86,19.87,97.81,19.87,100.21z"/>
				</g>
			</g>
		</g>
	</g>
</g>
<g id="DESIGNED_BY_FREEPIK">
</g>
</svg>
