<?xml version="1.0" encoding="utf-8"?>
<!-- Generator: Adobe Illustrator 24.0.2, SVG Export Plug-In . SVG Version: 6.00 Build 0)  -->
<svg version="1.1" xmlns="http://www.w3.org/2000/svg" xmlns:xlink="http://www.w3.org/1999/xlink" x="0px" y="0px"
	 viewBox="0 0 112.5 177.46" style="enable-background:new 0 0 112.5 177.46;" xml:space="preserve">
<style type="text/css">
	.st0{fill:#3E3A36;}
	.st1{fill:#FFB3A9;}
	.st2{clip-path:url(#SVGID_2_);}
	.st3{clip-path:url(#SVGID_4_);}
	.st4{fill:#112129;}
</style>
<g id="OBJECTS">
	<g>
		<g>
			<g>
				<path class="st0" d="M59.58,80.52l-0.96-2.12c-0.71-1.57-1.24-2.79-1.75-3.96c-0.54-1.24-1.05-2.44-1.76-3.99l-0.77-1.68
					l11.49,0.07l-0.8,1.67c-1,2.09-2.53,4.82-4.31,7.98L59.58,80.52z M58.01,71.15c0.37,0.83,0.7,1.59,1.03,2.36
					c0.25,0.57,0.5,1.16,0.78,1.79c0.85-1.51,1.61-2.9,2.25-4.12L58.01,71.15z"/>
			</g>
			<g>
				<circle class="st1" cx="75.36" cy="70.69" r="4.34"/>
			</g>
			<g>
				<g>
					<ellipse class="st0" cx="68.42" cy="61.06" rx="1.49" ry="2.18"/>
				</g>
				<g>
					<path class="st0" d="M68.93,66.81c-2.88,0-5.23-2.95-5.23-6.58s2.35-6.58,5.23-6.58c2.88,0,5.23,2.95,5.23,6.58
						S71.82,66.81,68.93,66.81z M68.93,55.42c-1.91,0-3.46,2.16-3.46,4.81s1.55,4.81,3.46,4.81c1.91,0,3.46-2.16,3.46-4.81
						S70.84,55.42,68.93,55.42z"/>
				</g>
			</g>
			<g>
				<circle class="st1" cx="45.27" cy="70.69" r="4.34"/>
			</g>
			<g>
				<g>
					<path class="st0" d="M50.73,61.06c0,1.2,0.67,2.18,1.49,2.18c0.82,0,1.49-0.98,1.49-2.18c0-1.2-0.67-2.18-1.49-2.18
						C51.39,58.88,50.73,59.86,50.73,61.06z"/>
				</g>
				<g>
					<path class="st0" d="M51.7,66.81c-2.88,0-5.23-2.95-5.23-6.58s2.35-6.58,5.23-6.58s5.23,2.95,5.23,6.58S54.58,66.81,51.7,66.81
						z M51.7,55.42c-1.91,0-3.46,2.16-3.46,4.81s1.55,4.81,3.46,4.81s3.46-2.16,3.46-4.81S53.61,55.42,51.7,55.42z"/>
				</g>
			</g>
		</g>
		<g>
			<g>
				<path class="st0" d="M77.05,55.47c-0.51,0-0.98-0.34-1.13-0.85c-0.18-0.63,0.18-1.28,0.81-1.46c2.76-0.8,5.41-1.94,7.88-3.4
					c0.78-0.46,1.28-0.81,1.59-1.06c-0.64-0.11-1.53-0.17-2.15-0.22c-0.85-0.06-1.65-0.12-2.3-0.25c-0.92-0.18-1.13-0.86-1.18-1.07
					c-0.22-1.02,0.68-1.67,1.82-2.48c0.36-0.26,0.82-0.58,0.99-0.76c0.04-0.05,0.08-0.09,0.11-0.13c-0.49,0.05-1.57,0.54-2.01,0.74
					c-0.96,0.43-1.78,0.8-2.47,0.13c-0.15-0.15-0.61-0.69-0.24-1.56c0.56-1.31,0.84-2.24,0.94-2.79c-1.49,0.27-2.98,1.23-4.21,2.73
					c-1.21,1.46-2.07,3.27-2.9,5.01c-0.28,0.59-0.98,0.84-1.57,0.55c-0.59-0.28-0.84-0.98-0.56-1.57c0.89-1.87,1.82-3.8,3.21-5.49
					c1.63-1.98,3.68-3.25,5.78-3.58c0.47-0.07,1.09-0.12,1.7,0.17c1.03,0.49,1.23,1.64,0.59,3.73c1.32-0.48,2.87-0.74,3.82,0.54
					c0.67,0.92,0.48,2.16-0.49,3.16c-0.18,0.19-0.42,0.38-0.68,0.58c2.3,0.17,4.26,0.36,4.61,1.87c0.32,1.37-1.05,2.5-3.21,3.78
					c-2.64,1.56-5.47,2.78-8.42,3.64C77.27,55.46,77.16,55.47,77.05,55.47z"/>
			</g>
			<g>
				<path class="st0" d="M44.56,55.47c-0.14,0-0.28-0.02-0.42-0.08c-2.19-0.83-9.36-3.78-9.62-7.14c-0.06-0.82,0.22-1.99,1.92-2.95
					c0.44-0.25,0.87-0.21,1.4,0.02c-0.12-0.33-0.26-0.71-0.43-1.15c-0.21-0.55-0.72-1.83-0.01-2.97c0.78-1.26,2.49-1.37,3.61-0.74
					c0.25,0.14,0.52,0.35,0.8,0.6c0-0.78,0.01-1.56,0.09-2.2c0.25-1.95,1.29-2.49,1.89-2.64c0.65-0.17,1.92-0.15,3.04,1.74
					c1.77,2.96,3.08,6.16,3.9,9.51c0.15,0.63-0.23,1.27-0.87,1.42c-0.63,0.15-1.27-0.23-1.43-0.87c-0.76-3.12-1.98-6.1-3.63-8.86
					c-0.18-0.3-0.33-0.47-0.43-0.57c-0.05,0.11-0.1,0.29-0.13,0.56c-0.1,0.76-0.08,1.92-0.07,2.87c0.03,1.99,0.04,2.82-0.93,3.13
					c-0.4,0.13-1.02,0.07-1.43-0.52c-0.48-0.69-1.58-1.9-1.95-2.11c-0.19-0.1-0.42-0.09-0.49-0.05c0.01,0-0.03,0.18,0.23,0.84
					c1.39,3.54,1.32,4.41,0.65,5.04c-0.33,0.3-0.91,0.51-1.57,0.19c-0.09-0.04-0.3-0.17-0.57-0.34c-0.19-0.12-0.61-0.38-0.92-0.56
					c-0.21,0.17-0.32,0.33-0.31,0.44c0.1,1.25,4.35,3.7,8.1,5.12c0.61,0.23,0.92,0.91,0.69,1.52
					C45.48,55.18,45.03,55.47,44.56,55.47z"/>
			</g>
			<g>
				<g>
					<path class="st0" d="M60.45,54.71c-0.08,0-0.16,0-0.24-0.01c-0.98-0.09-1.81-0.7-2.18-1.6c-0.39-0.95-0.88-1.76-1.46-2.43
						c-1.12-1.28-4.05-2.16-5.91-1.78c-0.63,0.13-1.26-0.28-1.39-0.92c-0.13-0.64,0.28-1.26,0.92-1.39
						c2.38-0.49,6.32,0.44,8.16,2.54c0.75,0.86,1.38,1.9,1.87,3.08c0.04,0.09,0.11,0.14,0.21,0.15c0.08,0.01,0.18-0.01,0.25-0.12
						c2.42-3.81,5.51-5.93,9.19-6.3c0.64-0.08,1.23,0.41,1.29,1.06c0.06,0.65-0.41,1.23-1.06,1.29c-2.97,0.3-5.4,2-7.44,5.21
						C62.18,54.26,61.35,54.71,60.45,54.71z"/>
				</g>
				<g>
					<g>
						<path class="st0" d="M31.89,127.47c-0.67,0-1.36-0.16-2.05-0.49c-0.57-0.27-1.12-0.67-1.68-1.22
							c-2.47-2.4-4.06-5.87-4.75-10.32c-1.12-7.31,0.3-15.34,4.2-23.89c1.23-2.69,5.76-11.62,12.36-13.47l0.15-0.03
							c4.25-0.61,8.03,1.98,10.15,4.6c2.81,3.46,3.84,7.91,4.42,11.4c0.9,5.42,0.87,10.91-0.09,16.33c-0.3,1.7-0.75,3.45-2,4.8
							c-1.41,1.52-4.04,2.24-5.84,0.73c-0.39-0.33-0.73-0.83-1.01-1.44c-0.66,3.5-1.63,7.07-2.92,9.35
							c-0.18,0.32-0.6,1.07-1.46,1.28c-1.03,0.24-1.99-0.36-2.57-1.63c-0.31-0.68-0.58-1.51-0.8-2.41c-0.32,1.01-0.68,1.94-1.1,2.69
							C35.53,126.19,33.78,127.47,31.89,127.47z M40.54,80.37c-4.44,1.3-8.48,7.12-10.78,12.16c-3.71,8.12-5.06,15.71-4.02,22.55
							c0.6,3.93,1.97,6.96,4.06,8.99c0.38,0.37,0.72,0.62,1.06,0.78c0.53,0.25,2.16,1.03,3.99-2.25c1.28-2.29,2.11-7.11,2.36-9.79
							l2.35,0.17c-0.15,2.71,0.4,7.29,1.36,9.44c2-3.8,3.19-11.5,3.47-15.55l2.36,0.08c0,3.02,0.86,6.59,1.53,7.15
							c0.69,0.57,1.94,0.2,2.6-0.52c0.83-0.9,1.17-2.27,1.41-3.61c0.92-5.15,0.95-10.38,0.09-15.53c-0.53-3.2-1.46-7.27-3.93-10.3
							C46.31,81.5,43.21,80.03,40.54,80.37z"/>
					</g>
					<g>
						<path class="st0" d="M56.35,132.4c-0.58,0-1.16-0.03-1.73-0.08c-5.5-0.54-11.38-5.72-12.84-11.3
							c-0.17-0.63,0.21-1.28,0.84-1.44c0.63-0.16,1.27,0.21,1.44,0.84c1.2,4.56,6.34,9.11,10.79,9.55
							c5.31,0.53,10.38-1.86,13.7-3.95c2.5-1.57,4.39-3.19,5.78-4.93c2.81-3.51,4.04-8.07,4.98-12.07
							c2.29-9.76,3.22-18.36,2.86-26.31c-0.43-9.52-2.85-19.1-6.98-27.69c-0.91-1.89-1.96-3.83-3.46-5.25
							c-1.82-1.71-4.51-2.83-8-3.34c-3.09-0.45-7.59-0.54-11.47,1.57c-5,2.72-7.84,8.42-10.16,14.17
							c-2.36,5.85-4.86,12.78-5.51,19.84c-0.06,0.65-0.64,1.13-1.28,1.07c-0.65-0.06-1.13-0.63-1.07-1.28
							c0.68-7.36,3.25-14.5,5.67-20.5C42.4,55.12,45.48,49,51.13,45.92c3.52-1.92,8-2.55,12.94-1.83c3.98,0.58,7.1,1.91,9.28,3.96
							c1.79,1.68,2.97,3.85,3.97,5.95c4.27,8.87,6.76,18.76,7.21,28.6c0.37,8.17-0.58,16.98-2.92,26.95
							c-1,4.25-2.32,9.11-5.43,13.01c-1.56,1.96-3.65,3.74-6.37,5.46C65.23,130.9,60.62,132.4,56.35,132.4z"/>
					</g>
					<g>
						<path class="st0" d="M48.49,129.64c-0.45,0-0.87-0.25-1.07-0.69c-1.9-4.13-2.61-8.94-2.11-14.28
							c0.06-0.65,0.63-1.13,1.29-1.06c0.65,0.06,1.12,0.64,1.06,1.29c-0.47,4.92,0.17,9.32,1.9,13.07c0.27,0.59,0.01,1.29-0.58,1.56
							C48.82,129.61,48.65,129.64,48.49,129.64z"/>
					</g>
					<g>
						<path class="st0" d="M53.7,96.64c-0.26,0-0.52-0.08-0.74-0.26c-0.51-0.41-0.59-1.15-0.18-1.66c0.83-1.03,1.73-1.99,2.68-2.83
							c7.6-6.74,20.22-7.03,28.13-0.64c0.51,0.41,0.59,1.15,0.18,1.66s-1.15,0.59-1.66,0.18c-7.05-5.7-18.3-5.44-25.08,0.57
							c-0.85,0.75-1.66,1.61-2.41,2.54C54.39,96.49,54.04,96.64,53.7,96.64z"/>
					</g>
					<g>
						<path class="st0" d="M76.72,128.71c-1.21,0-2.46-0.47-3.4-1.29c-0.94-0.82-1.49-1.91-1.55-3.06c-0.03-0.65,0.47-1.2,1.12-1.23
							c0.63-0.05,1.2,0.47,1.23,1.12c0.02,0.5,0.29,1,0.74,1.4c0.57,0.49,1.36,0.76,2.05,0.7c1.36-0.12,2.71-1.18,3.44-2.71
							c0.65-1.36,0.86-5.12,0.85-7.33c0-0.08,0-0.15,0-0.23l2.36-0.02c0,0.02,0,0.08,0,0.17c0.03,1.7,0.51,3.18,1.43,4.4
							c0.35,0.47,0.62,0.61,0.71,0.59c0.65-0.14,2-2.28,2.99-6.62c2.68-11.74,0.5-24.3-5.98-34.45c-0.35-0.55-0.19-1.28,0.36-1.63
							c0.55-0.35,1.28-0.19,1.63,0.36c6.82,10.68,9.12,23.89,6.29,36.25c-0.81,3.54-2.3,7.86-4.8,8.4c-0.76,0.16-1.9,0.05-3.03-1.4
							c-0.16,0.98-0.38,1.88-0.69,2.52c-1.1,2.3-3.15,3.85-5.36,4.04C76.99,128.7,76.85,128.71,76.72,128.71z"/>
					</g>
					<g>
						<g>
							<path class="st0" d="M67.81,141.31c-0.02,0-0.03,0-0.04,0c-0.65-0.02-1.16-0.57-1.13-1.22l0.44-11.81
								c0.02-0.65,0.59-1.13,1.22-1.13c0.65,0.02,1.16,0.57,1.13,1.22l-0.44,11.81C68.96,140.81,68.44,141.31,67.81,141.31z"/>
						</g>
						<g>
							<path class="st0" d="M49.4,142.6c-0.02,0-0.03,0-0.04,0c-0.65-0.02-1.16-0.57-1.13-1.22l0.44-11.81
								c0.02-0.65,0.6-1.12,1.22-1.13c0.65,0.02,1.16,0.57,1.13,1.22l-0.44,11.81C50.55,142.1,50.03,142.6,49.4,142.6z"/>
						</g>
						<g>
							<path class="st0" d="M53.7,143.58c-0.49,0-0.94-0.31-1.11-0.79c-0.85-2.44-2.16-4.9-2.8-5.26c-0.78,0.18-3.17,2.31-5.19,4.66
								c-0.43,0.49-1.17,0.55-1.66,0.12c-0.49-0.42-0.55-1.17-0.12-1.66c1.42-1.65,4.95-5.48,7.03-5.48c2.26,0,4.09,4.29,4.98,6.85
								c0.21,0.61-0.11,1.29-0.73,1.5C53.96,143.56,53.83,143.58,53.7,143.58z M49.74,137.51L49.74,137.51L49.74,137.51z"/>
						</g>
						<g>
							<path class="st0" d="M71.93,142.75c-0.49,0-0.94-0.31-1.11-0.79c-0.85-2.44-2.16-4.9-2.8-5.26
								c-0.78,0.18-3.17,2.31-5.19,4.66c-0.42,0.49-1.17,0.55-1.66,0.12c-0.49-0.42-0.55-1.17-0.12-1.66
								c1.42-1.65,4.95-5.48,7.03-5.48c2.26,0,4.09,4.29,4.98,6.85c0.21,0.61-0.11,1.29-0.73,1.5
								C72.19,142.73,72.06,142.75,71.93,142.75z M67.97,136.68L67.97,136.68L67.97,136.68z"/>
						</g>
					</g>
				</g>
			</g>
		</g>
	</g>
</g>
<g id="DESIGNED_BY_FREEPIK">
</g>
</svg>
