<?xml version="1.0" encoding="utf-8"?>
<!-- Generator: Adobe Illustrator 24.0.2, SVG Export Plug-In . SVG Version: 6.00 Build 0)  -->
<svg version="1.1" xmlns="http://www.w3.org/2000/svg" xmlns:xlink="http://www.w3.org/1999/xlink" x="0px" y="0px"
	 viewBox="0 0 112.5 177.46" style="enable-background:new 0 0 112.5 177.46;" xml:space="preserve">
<style type="text/css">
	.st0{fill:#3E3A36;}
	.st1{fill:#FFB3A9;}
	.st2{clip-path:url(#SVGID_2_);}
	.st3{clip-path:url(#SVGID_4_);}
	.st4{fill:#112129;}
</style>
<g id="OBJECTS">
	<g>
		<g>
			<g>
				<path class="st0" d="M68.47,148.62c0-0.05,0-0.11,0-0.16c0.01-0.49,0.42-0.87,0.91-0.86c0.48,0.01,0.86,0.41,0.86,0.88
					c0,0.01,0,0.01,0,0.02c-0.05,1.89,1.02,3.61,2.31,5.53c0.47,0.7,0.95,1.41,1.5,2.02c0.11-0.4,0.48-0.67,0.91-0.65
					c0.73,0.05,1.44,0.31,2.05,0.76c0.17,0.13,0.31,0.28,0.41,0.45c0.13,0.11,0.25,0.22,0.37,0.34c0.43,0.46,0.53,1.12,0.23,1.69
					c-0.29,0.56-0.87,0.87-1.49,0.79c-0.98-0.13-1.99-0.59-2.85-1.3c-1.09-0.9-1.89-2.08-2.59-3.13
					C69.98,153.37,68.47,151.13,68.47,148.62z"/>
			</g>
		</g>
		<g>
			<g>
				<g>
					<path class="st0" d="M38.73,98.93c0-2.15,0.57-4.18,1.67-5.82c3-4.44,8.98-5.23,13.86-5.43c12.23-0.49,24.56,0.23,36.65,2.13
						l0.37,0.06l0.27,0.26c1.25,1.21,1.7,2.81,1.35,4.86c-0.27,1.62-1.03,3.07-1.84,4.54c-2.79,5.02-5.87,9.97-9.15,14.7
						c-1.63,2.36-3.42,4.83-5.77,6.8c-2.66,2.23-5.71,3.45-8.6,3.44c-2.46-0.01-4.76-0.89-6.68-1.74
						c-6.11-2.71-11.73-6.73-16.27-11.63c-1.69-1.82-4.06-4.65-5.2-8.11C38.95,101.64,38.73,100.26,38.73,98.93z M90.15,92.08
						c-11.81-1.83-23.85-2.52-35.79-2.04c-4.59,0.18-9.61,0.85-12,4.39c-1.39,2.05-1.66,4.98-0.73,7.82
						c0.99,3.03,3.15,5.58,4.69,7.25c4.32,4.67,9.68,8.5,15.5,11.08c1.7,0.75,3.71,1.53,5.74,1.54c2.33,0.01,4.84-1.01,7.07-2.89
						c2.12-1.78,3.8-4.1,5.35-6.33c3.23-4.67,6.27-9.55,9.02-14.51c0.74-1.33,1.36-2.52,1.58-3.78
						C90.77,93.46,90.64,92.7,90.15,92.08z"/>
				</g>
				<g>
					<g>
						<path class="st0" d="M6.23,69.83c0-0.78,0.3-1.55,0.88-2.14c0.85-0.87,2.09-1.18,3.23-0.81c6.04,1.98,12.92,3.55,18.17,0.18
							c1.85-1.19,3.3-2.88,4.83-4.67c0.59-0.69,1.18-1.37,1.79-2.03c2.73-2.94,5.94-5.35,9.52-7.16l0.14-0.07
							c0.68-0.34,1.32-0.66,1.64-1.13c0.38-0.55,0.41-1.39,0.45-2.29c0.54-14.45,8.28-28.25,20.2-36.11
							c1.48-0.97,3.1-1.52,4.69-1.59c1.8-0.08,3.25,0.39,4.19,1.35c0.56,0.57,1.21,1.6,1.1,3.26l-0.04,0.63l-0.55,0.32
							c-8.12,4.7-13.74,13.42-14.66,22.75c-0.21,2.09-0.11,3.7,0.29,5.06c0.76,2.56,2.79,4.88,6.19,7.09
							c2.82,1.83,5.97,3.28,9.02,4.69c3.16,1.45,6.42,2.96,9.41,4.91c7.62,4.98,13.25,12.89,15.47,21.72
							c2.11,8.39,1.14,17.38,0.29,25.31c-0.74,6.87-1.58,14.65-4.97,21.35c-4.92,9.71-15.4,16.88-27.35,18.72
							c-13.16,2.02-25.16-2.25-32.91-6.19c-0.99-0.5-1.97-1.03-2.96-1.56c-3.9-2.09-7.93-4.25-12.23-4.73
							c-0.83-0.09-1.66-0.13-2.54-0.16c-1.49-0.06-3.03-0.12-4.55-0.5c-1.21-0.3-2.35-0.83-3.3-1.54c-1.02-0.77-1.5-2.03-1.27-3.29
							c0.24-1.28,1.17-2.29,2.42-2.64l8.4-2.34c0.31-0.09,0.83-0.23,0.98-0.43c0.17-0.23,0.09-0.87,0.06-1.21l-0.31-2.67
							c-1.46-12.64-2.98-25.71-1.7-38.59c0.1-0.97,0.2-2.06-0.25-2.72c-0.42-0.61-1.33-0.9-2.29-1.22l-0.23-0.08
							c-2.92-0.96-5.62-2.42-8.03-4.34c-1.44-1.14-2.56-2.63-3.08-4.08C6.29,70.52,6.23,70.17,6.23,69.83z M74.71,15.88
							c-0.05-0.36-0.19-0.65-0.41-0.88c-0.46-0.46-1.31-0.69-2.41-0.65c-1.17,0.05-2.38,0.47-3.5,1.21
							C57.1,23.02,49.76,36.1,49.25,49.7c-0.04,1.18-0.09,2.53-0.88,3.65c-0.67,0.95-1.65,1.45-2.52,1.88l-0.14,0.07
							c-3.34,1.68-6.32,3.92-8.86,6.66c-0.59,0.64-1.16,1.3-1.73,1.96c-1.58,1.84-3.21,3.75-5.35,5.12
							c-6.08,3.91-13.62,2.24-20.18,0.08c-0.42-0.14-0.73,0.13-0.81,0.21c-0.12,0.12-0.3,0.37-0.17,0.72
							c0.37,1.03,1.24,2.16,2.33,3.03c2.19,1.74,4.65,3.07,7.3,3.94l0.22,0.07c1.17,0.38,2.64,0.86,3.5,2.13
							c0.93,1.37,0.77,3.05,0.65,4.29c-1.25,12.63,0.25,25.57,1.7,38.09l0.31,2.68c0.08,0.72,0.22,1.92-0.51,2.89
							c-0.63,0.84-1.59,1.11-2.24,1.29l-8.4,2.34c-0.57,0.16-0.71,0.66-0.74,0.81c-0.03,0.18-0.07,0.64,0.37,0.97
							c0.68,0.51,1.55,0.92,2.44,1.14c1.29,0.32,2.65,0.37,4.08,0.43c0.88,0.04,1.8,0.07,2.71,0.17c4.75,0.54,8.98,2.81,13.08,5
							c0.97,0.52,1.94,1.04,2.91,1.53c7.44,3.78,18.94,7.88,31.49,5.96c11.21-1.72,21.02-8.4,25.6-17.45
							c3.2-6.32,3.98-13.55,4.73-20.54c0.87-8.11,1.77-16.5-0.23-24.48c-2.07-8.25-7.35-15.66-14.48-20.32
							c-2.84-1.86-6.02-3.32-9.1-4.74c-3.13-1.44-6.36-2.93-9.32-4.85c-3.89-2.53-6.23-5.27-7.16-8.39
							c-0.65-2.19-0.53-4.45-0.38-5.97C60.46,30.24,66.27,21.03,74.71,15.88z"/>
					</g>
					<g>
						<path class="st0" d="M9.92,62.05c0-0.41,0.09-0.8,0.19-1.16c0.19-0.68,0.44-1.35,0.73-2c0.75-1.65,1.77-1.86,2.32-1.84
							c0.64,0.02,1.14,0.37,1.47,0.6c4.9,3.42,10.06,6.55,15.35,9.32c0.43,0.23,0.6,0.76,0.37,1.19c-0.23,0.43-0.76,0.6-1.19,0.37
							c-5.35-2.8-10.58-5.98-15.54-9.43c-0.15-0.11-0.41-0.28-0.52-0.29c-0.11,0-0.38,0.21-0.65,0.81
							c-0.26,0.57-0.47,1.16-0.64,1.75c-0.09,0.32-0.15,0.58-0.12,0.79c0.06,0.46,0.55,0.91,1.01,1.3c1.67,1.42,4.1,2.67,6.44,3.88
							c1.38,0.71,2.68,1.38,3.82,2.08c0.42,0.25,0.55,0.8,0.29,1.22c-0.25,0.42-0.8,0.55-1.22,0.29c-1.08-0.66-2.36-1.32-3.71-2.01
							c-2.43-1.25-4.95-2.55-6.78-4.1c-0.71-0.6-1.48-1.34-1.61-2.42C9.93,62.27,9.92,62.16,9.92,62.05z"/>
					</g>
					<g>
						<path class="st0" d="M9.38,121.84c0-0.13,0-0.28,0-0.45c0.01-0.55,0.28-1.06,0.76-1.44c0.67-0.53,1.66-0.73,2.58-0.52
							c2.4,0.53,5.28,1.02,7.82,1.45c0.93,0.16,1.81,0.3,2.59,0.44c0.48,0.08,0.8,0.54,0.72,1.03c-0.08,0.48-0.54,0.8-1.02,0.72
							c-0.77-0.14-1.65-0.28-2.57-0.44c-2.56-0.43-5.46-0.92-7.91-1.46c-0.65-0.14-1.14,0.15-1.19,0.27
							c-0.01,1.04,0.03,1.29,0.04,1.32c0.07,0.23,0.54,0.72,2.84,1.2l7.25,1.52c0.48,0.1,0.78,0.57,0.68,1.05
							c-0.1,0.48-0.57,0.78-1.05,0.68l-7.25-1.52c-1.82-0.38-3.75-0.97-4.18-2.45C9.44,123.05,9.38,122.74,9.38,121.84z"/>
					</g>
				</g>
				<g>
					<path class="st0" d="M60.3,46.98c0-0.3,0.12-0.6,0.35-0.83c2.96-2.96,21.22-1.79,25.59-0.06c5.15,2.04,8.91,6.13,9.81,10.66
						c0.42,2.09,0.41,4.53,0.4,7.11c-0.01,3.21-0.02,6.53,0.87,8.86c0.23,0.61-0.08,1.29-0.68,1.52c-0.61,0.23-1.29-0.08-1.52-0.68
						c-1.04-2.74-1.03-6.28-1.02-9.7c0.01-2.46,0.01-4.78-0.36-6.64c-0.89-4.49-4.91-7.56-8.37-8.93
						C80.8,46.47,64,46.13,62.31,47.81c-0.46,0.46-1.21,0.46-1.67,0C60.41,47.58,60.3,47.28,60.3,46.98z"/>
				</g>
			</g>
			<g>
				<g>
					<path class="st0" d="M42.95,70.8c0-1.87,0.91-3.72,2.45-4.82c0.4-0.28,0.95-0.19,1.23,0.21c0.28,0.4,0.19,0.95-0.21,1.23
						c-1.34,0.95-2,2.79-1.58,4.38c0.43,1.59,1.92,2.85,3.56,3c0.49,0.04,0.85,0.49,0.8,0.96c-0.04,0.49-0.48,0.84-0.96,0.8
						c-2.38-0.22-4.48-1.99-5.11-4.3C43.01,71.78,42.95,71.29,42.95,70.8z"/>
				</g>
				<g>
					<ellipse class="st0" cx="71.54" cy="72.68" rx="2.18" ry="1.49"/>
				</g>
				<g>
					<path class="st1" d="M61.48,80.02c-2.4,0-4.34-1.94-4.34-4.34c0-2.4,1.94-4.34,4.34-4.34c2.4,0,4.34,1.94,4.34,4.34
						C65.82,78.08,63.88,80.02,61.48,80.02z"/>
				</g>
			</g>
		</g>
	</g>
</g>
<g id="DESIGNED_BY_FREEPIK">
</g>
</svg>
