<?xml version="1.0" encoding="utf-8"?>
<!-- Generator: Adobe Illustrator 24.0.2, SVG Export Plug-In . SVG Version: 6.00 Build 0)  -->
<svg version="1.1" xmlns="http://www.w3.org/2000/svg" xmlns:xlink="http://www.w3.org/1999/xlink" x="0px" y="0px"
	 viewBox="0 0 112.5 177.46" style="enable-background:new 0 0 112.5 177.46;" xml:space="preserve">
<style type="text/css">
	.st0{fill:#3E3A36;}
	.st1{fill:#FFB3A9;}
	.st2{clip-path:url(#SVGID_2_);}
	.st3{clip-path:url(#SVGID_4_);}
	.st4{fill:#112129;}
</style>
<g id="OBJECTS">
	<g>
		<g>
			<g>
				<g>
					<g>
						<path class="st1" d="M41.68,72.46c0,2.48,2.01,4.48,4.48,4.48c2.48,0,4.48-2.01,4.48-4.48c0-2.48-2.01-4.48-4.48-4.48
							C43.69,67.98,41.68,69.99,41.68,72.46z"/>
					</g>
					<g>
						<path class="st1" d="M65.45,72.46c0,2.48,2.01,4.48,4.48,4.48c2.48,0,4.48-2.01,4.48-4.48c0-2.48-2.01-4.48-4.48-4.48
							C67.46,67.98,65.45,69.99,65.45,72.46z"/>
					</g>
				</g>
				<g>
					<path class="st0" d="M58.84,80.54c-0.48,0-0.92-0.25-1.17-0.68c-2.33-3.88-4.35-7.31-4.35-7.31l-0.94-1.59l1.83-0.24
						c1-0.13,2.59-0.26,4.13-0.38c1.5-0.12,3.06-0.24,3.99-0.36l1.94-0.25l-0.64,1.85c-3.02,8.77-3.92,8.87-4.65,8.94
						C58.93,80.54,58.88,80.54,58.84,80.54z M56.38,72.95c0.62,1.05,1.5,2.53,2.48,4.17c0.52-1.11,1.19-2.81,1.82-4.53
						c-0.68,0.06-1.43,0.12-2.16,0.18C57.8,72.83,57.06,72.89,56.38,72.95z"/>
				</g>
			</g>
			<g>
				<ellipse class="st0" cx="51.92" cy="65.62" rx="1.54" ry="2.25"/>
			</g>
			<g>
				<path class="st0" d="M64.62,65.05c0,1.24-0.69,2.25-1.54,2.25c-0.85,0-1.54-1.01-1.54-2.25c0-1.24,0.69-2.25,1.54-2.25
					C63.94,62.8,64.62,63.81,64.62,65.05z"/>
			</g>
		</g>
		<g>
			<g>
				<path class="st0" d="M59.49,57.74c-0.18,0-0.35-0.04-0.51-0.11c-0.07-0.01-0.13-0.02-0.2-0.04c-7.03-1.9-11.53-5.31-13.01-9.87
					c-0.65-2.02-0.42-4.67,1.63-5.72c1.01-0.52,2.26-0.51,3.62,0.02c0.98,0.39,1.88,0.98,2.64,1.72c0.2-2.23,0.63-4.44,1.28-6.6
					c0.43-1.42,1.03-3.03,2.26-4.24c1.47-1.45,3.63-1.92,5.26-1.15c1.58,0.75,2.55,2.45,2.88,5.06c0.41,3.23,0.46,5.95,0.16,8.13
					c2.67-1.61,5.27-1.83,6.6-0.74c0.51,0.42,1.98,2.03-0.53,5.14c-3.06,3.79-7.09,6.67-11.67,8.33
					C59.77,57.71,59.63,57.74,59.49,57.74z M49.06,44.05c-0.21,0-0.4,0.04-0.55,0.11c-0.72,0.37-0.78,1.72-0.43,2.81
					c1.53,4.72,7.01,7.11,11.33,8.27c0.01,0,0.01,0,0.02,0.01c4.01-1.53,7.55-4.1,10.25-7.44c0.86-1.07,0.91-1.65,0.87-1.75
					c-0.02-0.02-0.23-0.15-0.71-0.12c-1.51,0.03-4,1.21-6.14,3.75c0,0,0,0,0,0l-1.86-1.57c0,0,0,0,0,0l0,0v0
					c1.4-1.66,1.79-5.57,1.1-11.01c-0.22-1.73-0.73-2.79-1.51-3.16c-0.81-0.39-1.88,0.05-2.51,0.68c-0.84,0.83-1.3,2.09-1.64,3.22
					c-1.02,3.37-1.45,6.86-1.27,10.38l-2.41,0.28c-0.33-1.87-1.69-3.52-3.46-4.22C49.74,44.13,49.37,44.05,49.06,44.05z"/>
			</g>
			<g>
				<path class="st0" d="M59.38,126.66c-8.17,0-16.46-3.97-22.36-10.74c-1.94-2.22-3.33-4.39-4.26-6.63
					c-1.28-3.08-1.84-6.61-1.76-11.13c0.24-13.64,13.15-42.51,26.96-42.51c4.85,0,9.4,3.24,13.89,9.89
					c7.1,10.54,11,23.34,10.97,36.05c-0.01,2.73-0.18,6.79-1.58,10.6c-3,8.14-11.58,14.08-20.87,14.45
					C60.04,126.66,59.71,126.66,59.38,126.66z M57.95,58.08c-11.2,0-24.28,26.17-24.53,40.12c-0.07,4.17,0.43,7.39,1.58,10.15
					c0.83,1.99,2.09,3.95,3.85,5.97c5.66,6.5,13.65,10.18,21.42,9.89c8.33-0.33,16.01-5.62,18.68-12.86
					c1.27-3.44,1.42-7.22,1.43-9.76c0.03-12.23-3.72-24.55-10.56-34.69C65.82,60.97,61.93,58.08,57.95,58.08z"/>
			</g>
			<g>
				<path class="st0" d="M27.3,112.86c-0.17,0-0.34-0.01-0.52-0.03c-1.8-0.19-3.19-1.16-3.92-2.74c-0.41-0.88-0.58-1.86-0.59-2.84
					c-1.46,0.85-2.98,1.18-4.23,1.06c-1.59-0.14-2.79-1-3.23-2.29c-0.4-1.19-0.29-3.08,1.9-5.82c-0.62-0.06-1.22-0.17-1.74-0.33
					c-1.62-0.52-2.64-1.56-2.87-2.93c-0.48-2.89,2.68-6.82,9.67-12.02c3.72-2.77,7.52-4.88,11.54-7.11
					c1.14-0.63,2.28-1.27,3.43-1.92c0.58-0.34,1.33-0.13,1.66,0.45c0.33,0.58,0.13,1.33-0.45,1.66c-1.16,0.66-2.31,1.3-3.45,1.93
					c-3.95,2.19-7.68,4.26-11.27,6.94c-9.91,7.38-8.76,9.75-8.6,10c0.74,1.11,3.9,1.09,4.61,0.67l0.49,0.57l1.16,1.21
					c-0.03,0.03-0.05,0.05-0.08,0.07c-3.2,2.93-3.99,4.97-3.7,5.83c0.16,0.48,0.78,0.61,1.14,0.64c1.53,0.13,3.7-0.84,5.09-2.96
					c0.11-0.21,0.23-0.41,0.36-0.59l2.07,1.27c-0.11,0.2-0.22,0.39-0.34,0.58c-0.71,1.38-1.04,3.45-0.37,4.88
					c0.37,0.8,1.02,1.24,1.97,1.34c1.66,0.17,2.86-1.3,4.52-3.56c0.21-0.29,0.42-0.57,0.63-0.85c0.41-0.53,1.17-0.64,1.71-0.23
					c0.53,0.41,0.64,1.17,0.23,1.71c-0.2,0.26-0.4,0.54-0.6,0.81C32.01,110.34,30.16,112.86,27.3,112.86z"/>
			</g>
			<g>
				<path class="st0" d="M97.16,94.63c-0.28,0-0.55-0.02-0.82-0.07c-1.78-0.3-2.25-0.61-3.64-1.64l1.38-2
					c0.39,0.25,0.79,0.5,1.18,0.77c0.07,0.04,0.13,0.1,0.18,0.15c0.33,0.15,0.68,0.23,1.29,0.33c0.98,0.16,2.21-0.24,2.48-1.1
					c0.16-0.51,0.02-1.2-0.41-2.06c-1.71-3.4-5.25-5.52-8.74-7.41c-4.19-2.27-9.19-4.81-14.55-6.37c-0.65-0.19-1.02-0.86-0.83-1.51
					c0.19-0.65,0.87-1.02,1.51-0.83c5.58,1.62,10.73,4.23,15.03,6.56c3.65,1.98,7.72,4.44,9.75,8.46c0.73,1.45,0.92,2.76,0.56,3.89
					C100.95,93.67,98.99,94.63,97.16,94.63z"/>
			</g>
			<g>
				<path class="st0" d="M88.38,107.62c-0.88,0-1.75-0.17-2.51-0.48c-2.16-0.88-3.7-2.61-5.05-4.13c-0.45-0.5-0.4-1.27,0.1-1.72
					c0.5-0.45,1.27-0.4,1.72,0.1c1.18,1.33,2.52,2.83,4.16,3.5c1.33,0.55,3.19,0.42,3.98-0.75c1.13-1.66-0.49-4.17-1.86-5.45
					l1.56-1.87c2.24,1.66,4.11,1.77,5.11,1.32c0.35-0.16,0.78-0.47,0.83-1.07c0.08-1-0.85-2.26-2.51-3.37
					c-0.56-0.37-0.71-1.13-0.33-1.69c0.38-0.56,1.13-0.71,1.69-0.33c3.33,2.24,3.67,4.47,3.57,5.59c-0.11,1.36-0.94,2.49-2.26,3.08
					c-1,0.45-2.17,0.56-3.4,0.33c0.6,1.62,0.61,3.33-0.4,4.81C91.78,106.99,90.06,107.62,88.38,107.62z"/>
			</g>
			<g>
				<path class="st0" d="M72.62,121.45c-0.13,0-0.25-0.02-0.38-0.06c-0.64-0.21-0.99-0.9-0.78-1.54c2.01-6.1,0.34-13.12-0.99-18.77
					c-0.71-2.99-1.51-5.81-3.54-7.36c-1.3-1-3.18-1.48-5.27-1.33c-6.13,0.42-10.73,5.37-12.99,9.87
					c-2.68,5.33-3.41,11.43-4.12,17.33c-0.08,0.67-0.7,1.15-1.35,1.06c-0.67-0.08-1.14-0.69-1.06-1.35
					c0.7-5.82,1.49-12.42,4.36-18.13c2.56-5.1,7.84-10.71,15-11.2c2.68-0.18,5.15,0.47,6.92,1.83c2.66,2.04,3.61,5.3,4.43,8.73
					c1.41,5.94,3.16,13.33,0.94,20.09C73.6,121.12,73.13,121.45,72.62,121.45z"/>
			</g>
			<g>
				<path class="st0" d="M51.92,97.76c-0.66,0-1.2-0.53-1.22-1.19c-0.01-0.67,0.52-1.23,1.19-1.24l17.42-0.32
					c0.66-0.05,1.23,0.52,1.24,1.19c0.01,0.67-0.52,1.23-1.19,1.24l-17.42,0.32C51.93,97.76,51.92,97.76,51.92,97.76z"/>
			</g>
			<g>
				<path class="st0" d="M58.84,101.95c-3.35,0-6.69-0.06-10.02-0.18c-0.67-0.03-1.2-0.59-1.17-1.26c0.02-0.67,0.59-1.18,1.26-1.17
					c7.4,0.27,14.92,0.24,22.33-0.1c0.66-0.03,1.24,0.49,1.27,1.16c0.03,0.67-0.49,1.24-1.16,1.27
					C67.2,101.85,63.02,101.95,58.84,101.95z"/>
			</g>
			<g>
				<path class="st0" d="M69.41,107.96c-7.58,0-15.23-0.18-22.77-0.53c-0.67-0.03-1.19-0.6-1.16-1.27c0.03-0.67,0.6-1.2,1.27-1.16
					c8.42,0.39,16.97,0.56,25.41,0.52c0.69,0.01,1.22,0.54,1.22,1.21c0,0.67-0.54,1.22-1.21,1.22
					C71.25,107.96,70.33,107.96,69.41,107.96z"/>
			</g>
			<g>
				<path class="st0" d="M73.26,114.5c-0.01,0-0.02,0-0.02,0l-27.88-0.53c-0.67-0.01-1.21-0.57-1.19-1.24
					c0.01-0.66,0.55-1.19,1.22-1.19c0.01,0,0.02,0,0.02,0l27.88,0.53c0.67,0.01,1.21,0.57,1.19,1.24
					C74.46,113.97,73.92,114.5,73.26,114.5z"/>
			</g>
			<g>
				<path class="st0" d="M67.96,121.46c-8.11,0-16.26-0.55-24.28-1.64c-0.67-0.09-1.13-0.7-1.04-1.37c0.09-0.67,0.71-1.14,1.37-1.04
					c9.36,1.27,18.91,1.8,28.35,1.56c0.64-0.01,1.23,0.51,1.25,1.19c0.02,0.67-0.51,1.23-1.19,1.25
					C70.93,121.44,69.45,121.46,67.96,121.46z"/>
			</g>
			<g>
				<g>
					<path class="st0" d="M67.21,146.01c-0.02,0-0.03,0-0.05,0c-0.67-0.03-1.2-0.59-1.17-1.26c0.07-2.01,0.15-6.07,0.22-9.99
						c0.07-3.97,0.15-8.07,0.23-10.12c0.03-0.67,0.59-1.18,1.26-1.17c0.67,0.03,1.2,0.59,1.17,1.26c-0.08,2.03-0.15,6.12-0.23,10.07
						c-0.07,3.93-0.15,8-0.23,10.03C68.4,145.5,67.86,146.01,67.21,146.01z"/>
				</g>
				<g>
					<path class="st0" d="M48.21,147.34c-0.02,0-0.03,0-0.05,0c-0.67-0.03-1.2-0.59-1.17-1.26c0.08-2.02,0.15-6.71,0.23-11.24
						c0.07-4.55,0.15-9.25,0.23-11.3c0.03-0.67,0.6-1.19,1.26-1.17c0.67,0.03,1.2,0.59,1.17,1.26c-0.08,2.02-0.15,6.71-0.23,11.24
						c-0.07,4.55-0.15,9.25-0.23,11.3C49.4,146.83,48.86,147.34,48.21,147.34z"/>
				</g>
				<g>
					<path class="st0" d="M52.65,148.36c-0.5,0-0.97-0.32-1.15-0.82c-0.88-2.52-2.23-5.06-2.89-5.43c-0.8,0.18-3.27,2.39-5.36,4.81
						c-0.44,0.51-1.21,0.57-1.72,0.13c-0.51-0.44-0.57-1.21-0.13-1.72c1.47-1.7,5.11-5.66,7.26-5.66c2.33,0,4.22,4.43,5.14,7.07
						c0.22,0.63-0.11,1.33-0.75,1.55C52.92,148.34,52.78,148.36,52.65,148.36z M48.55,142.09L48.55,142.09L48.55,142.09z"/>
				</g>
				<g>
					<path class="st0" d="M71.47,147.5c-0.5,0-0.97-0.32-1.15-0.82c-0.88-2.52-2.23-5.06-2.89-5.43c-0.8,0.18-3.27,2.39-5.36,4.81
						c-0.44,0.51-1.21,0.57-1.72,0.13c-0.51-0.44-0.57-1.21-0.13-1.72c1.47-1.7,5.11-5.66,7.26-5.66c2.33,0,4.22,4.43,5.14,7.07
						c0.22,0.63-0.11,1.33-0.75,1.55C71.74,147.48,71.6,147.5,71.47,147.5z M67.37,141.23L67.37,141.23L67.37,141.23z"/>
				</g>
			</g>
		</g>
	</g>
</g>
<g id="DESIGNED_BY_FREEPIK">
</g>
</svg>
