<?xml version="1.0" encoding="utf-8"?>
<!-- Generator: Adobe Illustrator 24.0.2, SVG Export Plug-In . SVG Version: 6.00 Build 0)  -->
<svg version="1.1" xmlns="http://www.w3.org/2000/svg" xmlns:xlink="http://www.w3.org/1999/xlink" x="0px" y="0px"
	 viewBox="0 0 112.5 177.46" style="enable-background:new 0 0 112.5 177.46;" xml:space="preserve">
<style type="text/css">
	.st0{fill:#3E3A36;}
	.st1{fill:#FFB3A9;}
	.st2{clip-path:url(#SVGID_2_);}
	.st3{clip-path:url(#SVGID_4_);}
	.st4{fill:#112129;}
</style>
<g id="OBJECTS">
	<g>
		<g>
			<g>
				<g>
					<g>
						<path class="st0" d="M48.97,164.97c-0.7,0-1.34-0.24-1.86-0.7c-1.2-1.06-1.39-3-1.4-4.07l-0.07-6.4
							c0-0.37,0.02-0.82,0.05-1.29c0.02-0.33,0.05-0.82,0.05-1.29c-0.18,1.04-0.3,2.9-0.21,6.2l0,0.12c0.05,1.81,0.1,3.86-1.22,5.6
							c-1.09,1.43-2.91,2-4.43,1.38c-1.11-0.45-2.86-1.85-2.2-6.18l0.08-0.52c0.4-2.59,0.82-5.28,0.45-7.8
							c-0.18-1.25-0.55-2.48-0.95-3.77c-0.34-1.11-0.69-2.26-0.91-3.45c-0.64-3.37-0.25-6.78,0.12-10.08l0.12-1.04
							c1.02-9.19,1.13-18.62,1.24-27.74l0.41-34c0.09-7.1,0.17-14.45-0.38-21.63c-0.05-0.65,0.44-1.22,1.08-1.27
							c0.65-0.04,1.22,0.44,1.27,1.08c0.57,7.29,0.48,14.69,0.39,21.84l-0.41,34c-0.11,9.18-0.23,18.67-1.25,27.97l-0.12,1.04
							c-0.36,3.12-0.72,6.35-0.15,9.37c0.2,1.07,0.52,2.11,0.85,3.21c0.4,1.32,0.81,2.68,1.02,4.11c0.42,2.88-0.02,5.74-0.45,8.51
							l-0.08,0.52c-0.15,0.94-0.36,3.18,0.75,3.64c0.63,0.25,1.3-0.14,1.67-0.62c0.82-1.08,0.78-2.55,0.74-4.11l0-0.12
							c-0.12-4.64,0.05-7.77,1.27-9.03c0.82-0.84,2.16-0.78,2.9,0.01c0.89,0.95,0.79,2.6,0.7,4.19c-0.02,0.41-0.05,0.8-0.05,1.12
							l0.07,6.4c0.01,1.24,0.32,2.06,0.61,2.33c0.07,0.06,0.16,0.12,0.39,0.1c0.44-0.05,0.81-0.47,0.86-0.98l1-10.51
							c0.07-0.78,0.49-1.47,1.14-1.91c0.65-0.44,1.45-0.56,2.2-0.33c5.77,1.74,12.64,1.83,21.02,0.29c0.73-0.13,1.96-0.36,2.98,0.34
							c1.07,0.72,1.29,2.02,1.4,2.71c0.57,3.36,1.02,6.79,1.35,10.18c0.01,0.06,0.04,0.09,0.06,0.11c0.42-0.17,0.72-0.49,0.91-0.86
							c0.45-0.88,0.45-2.03,0.42-3.13c-0.03-0.94-0.07-1.88-0.12-2.82c-0.17-3.57-0.36-7.26,0.59-10.84
							c0.45-1.69,1.14-3.33,1.81-4.91c1.61-3.82,3.14-7.43,1.07-11.28c-0.76-1.41-1.95-2.66-3.46-3.61
							c-4.27-2.69-9.37-2.73-14.29-2.77l-15.12-0.11c-1.54-0.01-3.66-0.03-5.3-1.25c-2.75-2.04-2.49-6.12-2.37-8.08
							c1.82-28.74,1.28-52.58-1.69-75.03c-0.09-0.65,0.37-1.24,1.01-1.32c0.64-0.08,1.24,0.37,1.32,1.01
							c2.99,22.6,3.54,46.58,1.71,75.48c-0.16,2.47-0.09,4.92,1.42,6.04c0.95,0.71,2.33,0.77,3.91,0.78l15.12,0.11
							c5.01,0.04,10.69,0.08,15.53,3.13c1.85,1.17,3.33,2.72,4.28,4.49c2.59,4.84,0.78,9.15-0.98,13.31c-0.64,1.51-1.3,3.07-1.7,4.6
							c-0.85,3.22-0.69,6.57-0.52,10.12c0.05,0.96,0.09,1.92,0.12,2.87c0.04,1.4,0.02,2.89-0.68,4.26
							c-0.39,0.77-1.01,1.43-1.75,1.86c-0.71,0.41-1.57,0.42-2.3,0.05c-0.77-0.4-1.28-1.14-1.36-2c-0.33-3.34-0.78-6.71-1.33-10.02
							c-0.05-0.3-0.17-0.99-0.4-1.15c-0.22-0.15-0.88-0.03-1.23,0.03c-8.76,1.61-16,1.5-22.13-0.35c-0.09-0.03-0.16,0-0.21,0.03
							c-0.04,0.03-0.09,0.08-0.1,0.17l-1,10.51c-0.15,1.63-1.4,2.93-2.95,3.1C49.19,164.96,49.08,164.97,48.97,164.97z"/>
					</g>
				</g>
				<g>
					<g>
						<path class="st0" d="M74.32,164.93c-0.58,0-1.12-0.15-1.58-0.29c-0.28-0.08-1.03-0.3-1.36-1.1c-0.18-0.42-0.16-0.86-0.15-1.15
							l0.34-11.23c0.02-0.56,0.47-1,1.04-0.98c0.56,0.02,0.99,0.48,0.98,1.04l-0.34,11.23c0,0.06,0,0.16,0,0.23
							c0.02,0.01,0.04,0.01,0.06,0.02c0.45,0.13,0.91,0.26,1.25,0.18c0.22-0.05,0.48-0.28,0.56-0.65c0.04-0.18,0.04-0.42,0.04-0.67
							l-0.01-11.09c0-0.56,0.45-1.01,1.01-1.01h0c0.56,0,1.01,0.45,1.01,1.01l0.01,11.09c0,0.32,0,0.69-0.08,1.07
							c-0.22,1.1-1.04,1.97-2.07,2.21C74.78,164.9,74.55,164.93,74.32,164.93z M73.25,162.78h0.01H73.25z"/>
					</g>
				</g>
				<g>
					<g>
						<path class="st0" d="M66.08,132.05c-3.24,0-6.62-1.41-9.45-4.03c-1.93-1.78-3.03-4.13-3.01-6.43c0.01-0.55,0.46-1,1.01-1
							c0,0,0.01,0,0.01,0c0.56,0.01,1,0.46,1,1.02c-0.02,1.73,0.84,3.53,2.36,4.93c3.11,2.87,6.94,4.08,10.23,3.22
							c3.2-0.83,5.62-3.52,7.02-7.78c0.17-0.53,0.74-0.82,1.27-0.64c0.53,0.17,0.82,0.74,0.64,1.27c-2.05,6.25-5.72,8.4-8.43,9.1
							C67.87,131.94,66.98,132.05,66.08,132.05z"/>
					</g>
				</g>
				<g>
					<g>
						<path class="st0" d="M57.66,151.01c-0.12,0-0.23-0.02-0.35-0.06c-0.52-0.19-0.79-0.77-0.6-1.29
							c2.11-5.73,8.06-9.68,14.16-9.36c1.91,0.1,3.34,0.6,4.37,1.55c1.43,1.31,1.77,3.12,2.11,4.87c0.19,1.02,0.38,1.99,0.77,2.82
							c0.24,0.5,0.02,1.1-0.48,1.34c-0.5,0.24-1.1,0.02-1.34-0.48c-0.5-1.06-0.72-2.2-0.92-3.3c-0.28-1.49-0.55-2.9-1.49-3.76
							c-0.66-0.61-1.71-0.95-3.11-1.02c-5.16-0.26-10.39,3.2-12.17,8.04C58.45,150.76,58.07,151.01,57.66,151.01z"/>
					</g>
				</g>
				<g>
					<g>
						<path class="st0" d="M85.13,140.67c-0.05,0-0.1,0-0.16-0.01c-3.43-0.53-6.34-3.52-6.78-6.97c-0.44-3.44,1.63-7.07,4.82-8.44
							c0.51-0.22,1.1,0.02,1.32,0.53c0.22,0.51-0.02,1.1-0.53,1.32c-2.39,1.03-3.95,3.75-3.62,6.33c0.33,2.58,2.52,4.83,5.09,5.23
							c0.55,0.09,0.93,0.6,0.84,1.15C86.04,140.32,85.61,140.67,85.13,140.67z"/>
					</g>
				</g>
				<g>
					<g>
						<path class="st0" d="M52.54,142.76c-0.73,0-1.45-0.09-2.11-0.17c-1.5-0.18-4-0.49-5.39-2.29c-1.54-1.99-0.96-4.84,0.41-6.62
							c1.83-2.37,4.98-3.34,7.51-2.3l0.01,0.01c1.96,0.84,3.38,2.27,4.08,4.14c0.69,1.83,0.58,3.79,0.12,4.78
							c-0.55,1.17-1.76,2.03-3.25,2.32C53.46,142.73,52.99,142.76,52.54,142.76z M50.83,132.99c-1.38,0-2.84,0.71-3.78,1.93
							c-0.88,1.14-1.32,2.98-0.41,4.15c0.81,1.04,2.44,1.32,4.04,1.52c0.97,0.12,1.97,0.24,2.87,0.07c0.84-0.16,1.54-0.62,1.81-1.2
							c0.15-0.33,0.4-1.69-0.18-3.21c-0.52-1.36-1.52-2.37-2.99-3C51.76,133.08,51.3,132.99,50.83,132.99z"/>
					</g>
				</g>
				<g>
					<g>
						<path class="st0" d="M38.65,133.23c-0.09,0-0.18,0-0.27-0.01c-0.56-0.03-0.99-0.5-0.96-1.06c0.03-0.56,0.49-0.99,1.06-0.96
							c2.13,0.1,4.22-1.72,4.61-3.97c0.37-2.14-2.3-5.76-4.23-7.53c-0.41-0.38-0.44-1.01-0.06-1.42c0.38-0.41,1.02-0.44,1.42-0.06
							c1.55,1.43,5.45,5.9,4.85,9.36C44.52,130.75,41.67,133.23,38.65,133.23z"/>
					</g>
				</g>
				<g>
					<g>
						<path class="st0" d="M46.09,104.89c-0.15,0-0.3-0.03-0.45-0.11c-2.49-1.23-4.05-4.03-3.79-6.79c0.25-2.76,2.29-5.23,4.96-5.99
							c0.54-0.15,1.09,0.16,1.25,0.69c0.15,0.54-0.16,1.09-0.69,1.25c-1.86,0.53-3.33,2.31-3.51,4.24c-0.18,1.92,0.95,3.94,2.68,4.8
							c0.5,0.25,0.7,0.85,0.45,1.35C46.82,104.68,46.46,104.89,46.09,104.89z"/>
					</g>
				</g>
				<g>
					<g>
						<path class="st0" d="M43.66,81.63c-0.62,0-1.2-0.23-1.6-0.66c-0.31-0.34-0.46-0.75-0.55-1.1c-0.67-2.38-0.31-5.08,0.95-7.21
							l0.15-0.2c0.69-0.69,1.33-0.75,1.75-0.68c0.56,0.09,1.05,0.48,1.34,1.06c0.6,1.21,1.29,2.58,1.4,4.13
							c0.11,1.57-0.52,3.52-2.19,4.36C44.51,81.53,44.08,81.63,43.66,81.63z M44.03,73.99c-0.85,1.61-1.06,3.58-0.57,5.33
							c0.06,0.21,0.09,0.27,0.11,0.29c0.04,0.01,0.24,0.01,0.44-0.09c0.83-0.42,1.15-1.55,1.08-2.42
							C45.02,76.05,44.53,75.01,44.03,73.99z"/>
					</g>
				</g>
				<g>
					<g>
						<path class="st0" d="M45.18,57.93c-0.03,0-0.05,0-0.08,0c-2.51-0.19-4.17-2.7-4.25-4.91c-0.09-2.34,2.19-6.44,4.57-7.28
							c0.52-0.19,1.1,0.09,1.29,0.62c0.18,0.53-0.09,1.1-0.62,1.29c-1.46,0.51-3.29,3.77-3.23,5.29c0.05,1.35,1.03,2.87,2.4,2.98
							c0.56,0.04,0.97,0.53,0.93,1.08C46.14,57.53,45.7,57.93,45.18,57.93z"/>
					</g>
				</g>
			</g>
			<g>
				<g>
					<g>
						<path class="st0" d="M86.75,127.67c-0.3,0-0.59-0.13-0.79-0.38c-0.35-0.43-0.28-1.07,0.16-1.42c1.95-1.56,3.54-3.57,4.62-5.82
							c0.77-1.6,1.35-3.45,1.83-5.83c0.53-2.63,0.69-4.71,0.48-6.57c-0.49-0.49-0.8-1.18-0.93-2.04c-0.1-0.66-0.1-1.3-0.01-1.93
							c-0.16-0.57-0.31-1.15-0.41-1.75c-0.25-1.46-0.29-3.54,0.96-5.19c0.68-0.9,1.75-1.52,2.88-1.66c0.97-0.13,1.89,0.11,2.6,0.67
							c0.95,0.75,1.47,1.97,1.59,3.71c0.12,1.76-0.09,3.51-0.6,5.19c-0.28,0.91-0.77,2.21-1.88,3.07c-0.63,0.49-1.39,0.74-2.11,0.74
							c0.1,2.33-0.26,4.54-0.58,6.15c-0.51,2.54-1.15,4.55-1.99,6.3c-1.21,2.52-3,4.77-5.18,6.52
							C87.2,127.6,86.98,127.67,86.75,127.67z M94.17,103.56c0.03,0.12,0.07,0.24,0.1,0.36c0.11,0.38,0.22,0.76,0.33,1.15
							c0.74-1.27,1.53-4.6,1.19-5.45c-0.07,0.09-0.16,0.22-0.25,0.4C94.96,101.17,94.4,102.37,94.17,103.56z M97.36,103.5
							c-0.12,0.44-0.3,1-0.53,1.56c0.14-0.28,0.26-0.61,0.37-0.98C97.26,103.88,97.32,103.69,97.36,103.5z M96.05,97.07
							c-0.09,0-0.17,0.01-0.25,0.02c-0.59,0.08-1.18,0.41-1.53,0.88c-0.27,0.36-0.45,0.77-0.55,1.2c0.01-0.02,0.02-0.03,0.02-0.04
							c0.64-1.28,1.61-1.86,2.6-1.56c0.44,0.13,0.81,0.44,1.12,0.91c0.06,0.09,0.11,0.18,0.15,0.28c-0.13-0.66-0.37-1.13-0.72-1.4
							C96.63,97.13,96.31,97.07,96.05,97.07z"/>
					</g>
				</g>
			</g>
		</g>
		<g>
			<g>
				<defs>
					<path id="SVGID_3_" d="M30.72,27.82c-3.95,1.91-7.84,5.23-10.94,8.33c-3.1,3.1-5.44,7.1-5.95,11.45
						c-0.27,2.3,0.01,4.74,1.24,6.7c2.3,3.66,7.46,4.66,11.57,3.32c4.11-1.34,7.34-4.51,10.14-7.81c3.47-4.09,7.05-9,7.92-12.16"/>
				</defs>
				<clipPath id="SVGID_2_">
					<use xlink:href="#SVGID_3_"  style="overflow:visible;"/>
				</clipPath>
				<g class="st2">
					<g>
						<g>
							<path class="st1" d="M44.67,45.05c0.01,2.73-2.21,4.96-4.94,4.96c-2.73,0.01-4.96-2.21-4.96-4.94
								c-0.01-2.73,2.21-4.96,4.94-4.96C42.44,40.1,44.66,42.32,44.67,45.05z"/>
						</g>
					</g>
					<g>
						<g>
							<path class="st1" d="M28.41,32.06c0.01,2.73-2.21,4.96-4.94,4.96c-2.73,0.01-4.96-2.21-4.96-4.94
								c-0.01-2.73,2.21-4.96,4.94-4.96C26.18,27.11,28.41,29.32,28.41,32.06z"/>
						</g>
					</g>
				</g>
			</g>
			<g>
				<g>
					<path class="st0" d="M39.7,27.43c-0.24,0-0.48-0.09-0.67-0.26c-0.41-0.37-0.45-1.01-0.07-1.42c2.08-2.31,3.25-5.41,3.21-8.52
						c-0.01-0.56,0.44-1.01,1-1.02c0.52,0,1.01,0.44,1.02,1c0.04,3.61-1.31,7.21-3.73,9.89C40.26,27.32,39.98,27.43,39.7,27.43z"/>
				</g>
			</g>
			<g>
				<g>
					<path class="st0" d="M43.83,29.17c-0.27,0-0.54-0.11-0.74-0.33c-0.38-0.41-0.35-1.05,0.06-1.42c2.38-2.18,4.98-4.13,7.74-5.79
						c0.48-0.29,1.1-0.13,1.38,0.34c0.29,0.48,0.13,1.1-0.34,1.38c-2.64,1.59-5.14,3.46-7.42,5.55
						C44.32,29.08,44.07,29.17,43.83,29.17z"/>
				</g>
			</g>
			<g>
				<g>
					<path class="st0" d="M52.8,24.31c-0.25,0-0.49-0.04-0.71-0.11c-0.06,0.01-0.13,0.01-0.2,0.02c-0.48,0.01-0.93-0.15-1.28-0.49
						c-0.4-0.38-0.59-0.91-0.53-1.48c0.05-0.46,0.27-0.93,0.6-1.32c0.21-0.67,0.66-1.26,1.12-1.62c0.31-0.24,0.78-0.56,1.4-0.56
						c0.22,0,0.43,0.04,0.63,0.12c0.37,0.12,0.67,0.37,0.88,0.71c0.01,0.02,0.02,0.03,0.03,0.05c0.28,0.43,0.41,0.97,0.34,1.48
						c-0.02,0.15-0.05,0.3-0.1,0.44c0.15,0.53,0.11,1.1-0.14,1.58c-0.33,0.64-0.98,1.07-1.74,1.17C53,24.3,52.9,24.31,52.8,24.31z"
						/>
				</g>
			</g>
			<g>
				<g>
					<path class="st0" d="M42.79,18.4c-0.13,0-0.25-0.01-0.38-0.04c-0.54-0.12-0.98-0.47-1.22-0.99c-0.2-0.42-0.25-0.94-0.18-1.44
						c-0.17-0.68-0.09-1.42,0.11-1.96c0.14-0.36,0.38-0.88,0.91-1.21c0.18-0.11,0.38-0.19,0.59-0.23c0.38-0.09,0.77-0.04,1.13,0.15
						c0.02,0.01,0.03,0.02,0.05,0.03c0.46,0.22,0.85,0.61,1.06,1.09c0.06,0.14,0.11,0.28,0.14,0.43c0.41,0.38,0.66,0.88,0.71,1.42
						c0.05,0.71-0.27,1.42-0.88,1.9c-0.28,0.22-0.59,0.37-0.91,0.45c-0.05,0.04-0.1,0.08-0.16,0.12
						C43.45,18.3,43.13,18.4,42.79,18.4z"/>
				</g>
			</g>
			<g>
				<g>
					<path class="st0" d="M30.72,28.83c-0.52,0-0.97-0.41-1-0.94c-0.28-4.04,0.24-8.85,2.65-9.12c1.68-0.18,2.84,1.82,3.46,5.96
						c0.04,0.27,0.1,0.7,0.19,0.78c0.05,0.04,0.27,0.08,0.39,0.1l2.48,0.49c0.55,0.11,0.9,0.64,0.79,1.18
						c-0.11,0.55-0.64,0.9-1.18,0.79l-2.48-0.49c-0.32-0.06-0.81-0.16-1.24-0.49c-0.72-0.56-0.85-1.4-0.94-2.02
						c-0.44-2.9-1.03-3.9-1.29-4.21c-0.42,0.56-1.13,2.68-0.83,6.87c0.04,0.56-0.38,1.04-0.94,1.08
						C30.77,28.83,30.75,28.83,30.72,28.83z"/>
				</g>
			</g>
			<g>
				<g>
					<path class="st0" d="M44.7,38.67c-0.52,0-0.96-0.4-1-0.93c-0.04-0.56,0.37-1.04,0.93-1.08c1.37-0.11,6.3-3.03,7.27-4.42
						c-1.38-0.47-3.25-0.81-5.03-0.17c-0.72,0.26-1.85,0.67-2.78-0.05c-0.29-0.22-0.4-0.52-0.53-0.87c-0.35-0.93-1.09-2.85-4.9-3.04
						c-0.56-0.03-0.99-0.5-0.96-1.06c0.03-0.56,0.5-0.99,1.06-0.96c5.1,0.25,6.25,3.18,6.68,4.31c0.18-0.04,0.51-0.16,0.7-0.23
						c2.55-0.92,5.07-0.37,6.75,0.26c0.99,0.37,1.24,1.16,1.16,1.78c-0.35,2.47-7.51,6.3-9.27,6.44
						C44.75,38.67,44.72,38.67,44.7,38.67z"/>
				</g>
			</g>
			<g>
				<g>
					<path class="st0" d="M22.98,59.2c-3.37,0-6.83-1.31-8.76-4.36c-1.57-2.49-1.62-5.37-1.39-7.35c0.5-4.24,2.71-8.52,6.23-12.04
						c3.99-3.99,7.77-6.86,11.21-8.53c0.5-0.24,1.1-0.03,1.35,0.47s0.03,1.1-0.47,1.35c-3.24,1.57-6.83,4.3-10.66,8.14
						c-3.2,3.2-5.21,7.06-5.66,10.85c-0.19,1.66-0.16,4.05,1.09,6.04c2.14,3.39,6.95,4.03,10.4,2.9c4.04-1.32,7.16-4.54,9.68-7.5
						c4.21-4.97,7.02-9.26,7.71-11.77c0.15-0.54,0.7-0.85,1.24-0.71c0.54,0.15,0.85,0.7,0.71,1.24c-1.04,3.81-5.53,9.5-8.12,12.54
						c-2.54,3-6.04,6.63-10.59,8.12C25.72,58.99,24.36,59.2,22.98,59.2z"/>
				</g>
			</g>
			<g>
				<g>
					<path class="st0" d="M31.42,55.33c-0.1,0-0.19-0.01-0.29-0.04c-0.53-0.16-0.84-0.72-0.68-1.26c1.07-3.56,0.15-7.65-2.35-10.41
						c-2.5-2.76-6.48-4.07-10.13-3.35c-0.55,0.11-1.08-0.25-1.18-0.79c-0.11-0.55,0.25-1.08,0.79-1.18
						c4.33-0.85,9.05,0.71,12.01,3.98c2.97,3.27,4.06,8.11,2.79,12.34C32.26,55.05,31.86,55.33,31.42,55.33z"/>
				</g>
			</g>
			<g>
				<g>
					<path class="st0" d="M40.1,37.54c-0.77,1.14-2.02,1.63-2.79,1.11c-0.78-0.52-0.78-1.87-0.02-3.01
						c0.77-1.14,2.02-1.63,2.79-1.11C40.86,35.06,40.87,36.4,40.1,37.54z"/>
				</g>
			</g>
			<g>
				<g>
					<path class="st0" d="M33.87,33.33c-0.77,1.14-2.02,1.63-2.79,1.11c-0.78-0.52-0.78-1.87-0.02-3.01
						c0.77-1.14,2.02-1.63,2.79-1.11C34.63,30.85,34.64,32.19,33.87,33.33z"/>
				</g>
			</g>
			<g>
				<g>
					<path class="st0" d="M20.33,48.4c-0.26,0-0.52-0.1-0.71-0.3c-0.39-0.39-0.39-1.03,0-1.43l2.08-2.08c0.39-0.39,1.03-0.39,1.43,0
						s0.39,1.03,0,1.43l-2.08,2.08C20.85,48.3,20.59,48.4,20.33,48.4z"/>
				</g>
			</g>
			<g>
				<g>
					<path class="st0" d="M23.8,51.26c-0.26,0-0.52-0.1-0.71-0.3c-0.39-0.39-0.39-1.03,0-1.43l2.08-2.08c0.39-0.39,1.03-0.39,1.43,0
						s0.39,1.03,0,1.43l-2.08,2.08C24.32,51.16,24.06,51.26,23.8,51.26z"/>
				</g>
			</g>
		</g>
	</g>
</g>
<g id="DESIGNED_BY_FREEPIK">
</g>
</svg>
