<?xml version="1.0" encoding="utf-8"?>
<!-- Generator: Adobe Illustrator 24.0.2, SVG Export Plug-In . SVG Version: 6.00 Build 0)  -->
<svg version="1.1" xmlns="http://www.w3.org/2000/svg" xmlns:xlink="http://www.w3.org/1999/xlink" x="0px" y="0px"
	 viewBox="0 0 112.5 177.46" style="enable-background:new 0 0 112.5 177.46;" xml:space="preserve">
<style type="text/css">
	.st0{fill:#3E3A36;}
	.st1{fill:#FFB3A9;}
	.st2{clip-path:url(#SVGID_2_);}
	.st3{clip-path:url(#SVGID_4_);}
	.st4{fill:#112129;}
</style>
<g id="OBJECTS">
	<g>
		<g>
			<g>
				<path class="st0" d="M54.21,36.23c-0.36,0-0.71-0.16-0.94-0.47c-1.73-2.31-2.76-5.16-2.9-8.03c-0.03-0.52-0.01-1.08,0.25-1.64
					c0.59-1.25,2.17-1.89,3.39-1.36c2.68,1.17,4.18,4.86,5.17,7.3c0.24,0.6-0.05,1.29-0.65,1.54c-0.6,0.24-1.29-0.05-1.54-0.65
					c-0.79-1.96-2.13-5.24-3.92-6.02c-0.06,0.01-0.26,0.1-0.31,0.2c-0.05,0.1-0.03,0.42-0.03,0.52c0.12,2.4,0.98,4.79,2.44,6.73
					c0.39,0.52,0.28,1.26-0.24,1.65C54.71,36.15,54.46,36.23,54.21,36.23z"/>
			</g>
			<g>
				<path class="st0" d="M78.34,44.27c-0.34,0-0.68-0.15-0.91-0.43c-0.41-0.5-0.34-1.25,0.16-1.66c1.87-1.53,3.28-3.65,3.97-5.95
					c0.03-0.1,0.12-0.4,0.1-0.51c-0.02-0.11-0.19-0.26-0.27-0.27c-1.91,0.33-3.99,3.2-5.23,4.91c-0.38,0.53-1.12,0.65-1.65,0.26
					c-0.53-0.38-0.65-1.12-0.26-1.65c1.54-2.13,3.88-5.36,6.76-5.85c1.31-0.22,2.69,0.77,2.96,2.13c0.12,0.6,0,1.15-0.15,1.65
					c-0.82,2.75-2.51,5.27-4.74,7.1C78.87,44.19,78.6,44.27,78.34,44.27z"/>
			</g>
			<g>
				<g>
					<path class="st0" d="M56.58,141.44c-5.78,0-11.52-1.82-15.93-3.48c-6.98-2.63-15.67-6.6-20.96-13.98
						c-5.05-7.05-6.5-16.74-3.87-25.92c2.72-9.49,8.91-16.37,14.02-20.69c-0.37-0.23-0.73-0.46-1.09-0.7
						c-6.06-4.1-10.18-10.09-11.29-16.42c-1.5-8.48,4.11-17.92,12.49-21.05c8.17-3.04,17.82-3.22,21.59-3.14
						c0.61,0,1.22-0.24,1.65-0.68c0.96-0.99,2.3-2.32,3.29-3.09c1.53-1.18,3.76-1.33,5.43-0.36c1.31,0.76,2.23,2.19,2.4,3.73
						c0.01,0.12,0.14,0.24,0.3,0.3l0.39,0.15c0.47,0.18,1.01,0.09,1.4-0.24l1.07-0.91c1.41-1.18,3.16-2.65,5.32-2.11
						c2.26,0.57,3.3,3.17,2.86,5.25c-0.02,0.12-0.05,0.24-0.08,0.36c-0.06,0.24-0.12,0.48-0.1,0.6c0.03,0.22,0.4,0.54,0.72,0.83
						c0.11,0.1,0.22,0.2,0.33,0.3c2.24,2.11,2.77,5.16,3.15,8.35l4.68,39.13c0.57,4.74,0.93,8.95,1.1,12.87
						c0.16,3.47,0.21,7.57-0.59,11.61c-1.04,5.29-3.49,10.59-7.72,16.68c-2.53,3.64-6.07,8.13-11.03,10.55
						C63.06,140.87,59.81,141.44,56.58,141.44z M32.05,78.61c-4.96,4.05-11.28,10.75-13.96,20.11c-2.44,8.49-1.12,17.42,3.52,23.89
						c4.92,6.86,13.21,10.63,19.88,13.14c6.46,2.44,15.93,5.24,23.58,1.52c4.48-2.18,7.76-6.37,10.13-9.78
						c4.03-5.81,6.37-10.83,7.34-15.79c0.75-3.8,0.69-7.72,0.54-11.05c-0.17-3.86-0.53-8.01-1.09-12.69l-4.68-39.13
						c-0.33-2.75-0.76-5.35-2.43-6.92c-0.09-0.09-0.19-0.17-0.28-0.25c-0.56-0.5-1.32-1.18-1.48-2.23
						c-0.09-0.59,0.04-1.11,0.14-1.53l0.07-0.28c0.2-0.96-0.25-2.25-1.13-2.47c-0.99-0.25-2.13,0.71-3.23,1.63l-1.05,0.9
						c-1.04,0.9-2.49,1.15-3.78,0.65l-0.39-0.15c-1-0.38-1.68-1.24-1.79-2.25c-0.09-0.8-0.57-1.57-1.24-1.95
						c-0.85-0.49-2.03-0.42-2.8,0.19c-0.69,0.53-1.77,1.55-3.04,2.86c-0.88,0.91-2.1,1.42-3.38,1.4c-3.64-0.07-12.93,0.09-20.72,3
						c-7.25,2.7-12.28,11.14-11,18.43c1.01,5.71,4.76,11.13,10.29,14.87c5.94,4.02,13,5.38,18.88,3.62
						c7.29-2.18,12.79-9.55,12.79-17.16c0-0.65,0.53-1.18,1.18-1.18c0,0,0,0,0,0c0.65,0,1.18,0.53,1.18,1.18
						c-0.01,8.61-6.23,16.95-14.47,19.42C44.15,82.24,37.8,81.48,32.05,78.61z"/>
				</g>
				<g>
					<path class="st0" d="M60.67,117.65c-0.24,0-0.49-0.01-0.73-0.02c-2.25-0.14-3.96-1.02-4.81-2.47c-0.75-1.27-0.8-2.93-0.15-4.67
						c1.19-3.2,3.88-5.23,6.48-7.19c1.12-0.85,2.28-1.72,3.27-2.66c3.49-3.34,5.35-8.2,4.96-13.02c-0.05-0.65,0.43-1.22,1.08-1.27
						c0.64-0.05,1.22,0.43,1.27,1.08c0.44,5.51-1.68,11.09-5.68,14.91c-1.08,1.04-2.3,1.95-3.48,2.84
						c-2.43,1.84-4.73,3.57-5.69,6.13c-0.19,0.5-0.56,1.75-0.03,2.65c0.62,1.06,2.25,1.27,2.93,1.31c3.94,0.25,8.08-1.98,10.8-5.8
						c2.2-3.09,3.58-7.2,4.22-12.57c0.08-0.65,0.67-1.1,1.31-1.03c0.65,0.08,1.11,0.66,1.03,1.31c-0.69,5.77-2.21,10.24-4.65,13.66
						C69.78,115.1,65.18,117.65,60.67,117.65z"/>
				</g>
				<g>
					<path class="st0" d="M37.59,150.13c-0.71,0-1.47-0.17-2.21-0.52c-2.71-1.25-4.57-4.22-5.09-8.15c-0.19-1.44-0.22-2.9-0.24-4.3
						c-0.03-1.56-0.06-3.04-0.29-4.49c-0.11-0.64,0.33-1.25,0.97-1.35c0.64-0.1,1.25,0.33,1.35,0.97c0.27,1.62,0.3,3.26,0.32,4.83
						c0.02,1.4,0.05,2.72,0.22,4.03c0.41,3.07,1.81,5.43,3.74,6.32c0.67,0.31,1.32,0.38,1.79,0.21c0.81-0.31,1.21-1.41,1.24-2.3
						c0.03-0.83-0.15-1.69-0.33-2.6c-0.09-0.42-0.17-0.84-0.24-1.26c-0.33-2.02-0.07-3.66,0.78-4.86c0.37-0.53,1.11-0.66,1.64-0.29
						c0.53,0.37,0.66,1.11,0.29,1.64c-0.48,0.68-0.61,1.73-0.38,3.13c0.06,0.39,0.14,0.78,0.22,1.16c0.21,1.01,0.42,2.05,0.38,3.16
						c-0.08,2.07-1.16,3.8-2.76,4.41C38.56,150.05,38.08,150.13,37.59,150.13z"/>
				</g>
				<g>
					<path class="st0" d="M63.8,152.91c-1.32,0-2.42-0.37-3.23-1.09c-1.25-1.12-1.49-2.78-1.48-3.97c0.02-1.24,0.28-2.43,0.53-3.58
						c0.31-1.43,0.61-2.79,0.39-4.07c-0.11-0.64,0.32-1.25,0.96-1.36c0.64-0.11,1.25,0.32,1.36,0.96c0.3,1.73-0.06,3.38-0.41,4.97
						c-0.24,1.08-0.46,2.1-0.47,3.11c-0.01,0.58,0.07,1.63,0.7,2.18c0.66,0.59,1.83,0.52,2.47,0.43c1-0.15,1.78-0.45,2.31-0.91
						c0.61-0.52,1.06-1.37,1.42-2.65c0.95-3.36,0.74-6.99-0.58-10.22c-0.25-0.6,0.04-1.29,0.65-1.54c0.6-0.25,1.29,0.04,1.54,0.65
						c1.52,3.71,1.75,7.89,0.66,11.75c-0.31,1.1-0.87,2.69-2.15,3.8c-0.88,0.76-2.06,1.25-3.51,1.46
						C64.56,152.88,64.17,152.91,63.8,152.91z"/>
				</g>
				<g>
					<path class="st0" d="M89.49,117.05c-0.47,0-0.93-0.04-1.39-0.13c-2.63-0.51-4.81-2.54-5.44-5.03
						c-0.16-0.63,0.23-1.27,0.86-1.43c0.63-0.16,1.27,0.23,1.43,0.86c0.4,1.6,1.88,2.95,3.6,3.29c1.69,0.33,3.58-0.26,4.92-1.54
						c1.29-1.23,2.07-3.05,2.13-4.99c0.03-0.94-0.12-1.71-0.44-2.29c-0.33-0.59-0.89-1-1.43-1.05c-0.45-0.03-0.95,0.27-1.03,0.63
						c-0.03,0.12,0.03,0.31,0.15,0.44c0.09,0.1,0.17,0.15,0.22,0.14c0.65-0.04,1.22,0.44,1.27,1.08c0.05,0.65-0.44,1.22-1.08,1.27
						c-0.81,0.06-1.61-0.28-2.19-0.95c-0.61-0.71-0.86-1.65-0.67-2.51c0.34-1.51,1.89-2.6,3.52-2.46c1.32,0.11,2.59,0.97,3.3,2.25
						c0.53,0.96,0.78,2.14,0.74,3.52c-0.08,2.56-1.13,4.97-2.86,6.62C93.57,116.23,91.51,117.05,89.49,117.05z"/>
				</g>
			</g>
		</g>
		<g>
			<g>
				<path class="st0" d="M43.8,76.63c-0.6,0-1.19-0.05-1.78-0.16c-0.64-0.12-1.07-0.73-0.95-1.37c0.12-0.64,0.73-1.07,1.37-0.95
					c2.17,0.39,4.51-0.18,6.27-1.52c1.75-1.34,2.91-3.45,3.11-5.65c0.06-0.65,0.63-1.13,1.28-1.07c0.65,0.06,1.13,0.63,1.07,1.28
					c-0.25,2.85-1.75,5.58-4.02,7.31C48.34,75.88,46.07,76.63,43.8,76.63z"/>
			</g>
			<g>
				<path class="st0" d="M33.47,58.84c0,1.2-0.67,2.18-1.49,2.18c-0.82,0-1.49-0.98-1.49-2.18c0-1.2,0.67-2.18,1.49-2.18
					C32.8,56.67,33.47,57.64,33.47,58.84z"/>
			</g>
			<g>
				<path class="st0" d="M39.79,61.02c0,1.2-0.67,2.18-1.49,2.18s-1.49-0.98-1.49-2.18c0-1.2,0.67-2.18,1.49-2.18
					S39.79,59.82,39.79,61.02z"/>
			</g>
			<g>
				<path class="st0" d="M60.58,38.42c0,1.2-0.67,2.18-1.49,2.18s-1.49-0.98-1.49-2.18s0.67-2.18,1.49-2.18S60.58,37.22,60.58,38.42
					z"/>
			</g>
			<g>
				<path class="st0" d="M71.38,40.6c0,1.2-0.67,2.18-1.49,2.18c-0.82,0-1.49-0.98-1.49-2.18c0-1.2,0.67-2.18,1.49-2.18
					C70.71,38.42,71.38,39.4,71.38,40.6z"/>
			</g>
			<g>
				<path class="st1" d="M74.23,52.75c0,2.4-1.94,4.34-4.34,4.34c-2.4,0-4.34-1.94-4.34-4.34c0-2.4,1.94-4.34,4.34-4.34
					C72.29,48.4,74.23,50.35,74.23,52.75z"/>
			</g>
		</g>
	</g>
</g>
<g id="DESIGNED_BY_FREEPIK">
</g>
</svg>
