<?xml version="1.0" encoding="utf-8"?>
<!-- Generator: Adobe Illustrator 24.0.2, SVG Export Plug-In . SVG Version: 6.00 Build 0)  -->
<svg version="1.1" xmlns="http://www.w3.org/2000/svg" xmlns:xlink="http://www.w3.org/1999/xlink" x="0px" y="0px"
	 viewBox="0 0 112.5 177.46" style="enable-background:new 0 0 112.5 177.46;" xml:space="preserve">
<style type="text/css">
	.st0{fill:#3E3A36;}
	.st1{fill:#FFB3A9;}
	.st2{clip-path:url(#SVGID_2_);}
	.st3{clip-path:url(#SVGID_4_);}
	.st4{fill:#112129;}
</style>
<g id="OBJECTS">
	<g>
		<g>
			<path class="st0" d="M47.17,150.39c-0.51,0-0.92-0.17-1.22-0.36c-2.62-1.73-1.44-9.07,0.82-20.95c0.45-2.37,0.88-4.61,1.15-6.37
				c1.2-7.7,1.47-18.62-0.76-24.42c-1.1-2.85-2.99-4.67-5.07-4.87c-1.96-0.19-3.96,1.07-5.48,3.47c-3.89,6.16-4.97,13.61-6.1,21.5
				c-1.08,7.51-2.2,15.28-5.99,21.91c-1.68,2.93-4.64,5.18-7.48,3.58c-1.57-0.88-2.43-2.77-2.14-4.69c0.37-2.44,1.89-4.11,3.24-5.58
				c0.49-0.54,0.96-1.05,1.38-1.59c1.75-2.29,2.44-7.94,3.23-14.49c1.21-9.96,2.86-23.6,9.41-35.19l0.4-0.7
				c1.4-2.41,2.33-4.01,11.87-30.85l0.59-1.67c1.9-5.41,3.86-11,7.7-15.42c4.47-5.14,11.59-8.75,17.45-5.25
				c5.87,3.01,10.69,8.59,13.57,15.72c2.26,5.6,3.41,12.09,3.6,20.41c0.07,3.09,2.39,15.88,4.43,27.16
				c1.7,9.4,3.31,18.27,3.63,21.49c0.87,8.69,1.85,18.54,6.96,26.26l0.18,0.27c0.76,1.13,1.62,2.42,1.53,4.1
				c-0.05,0.95-0.47,1.83-1.16,2.41c-1.58,1.34-3.34,0.42-3.92,0.11c-6.17-3.24-8.25-10.76-9.27-16.13
				c-0.6-3.14-1.07-6.36-1.52-9.48c-1-6.87-2.03-13.98-4.54-20.49c-0.62-1.61-1.21-2.56-2.41-2.68c-0.5-0.05-1.04,0.08-1.51,0.35
				c-1.16,0.67-1.94,1.91-2.53,4.01c-1.93,6.86-1.21,12.05-0.28,18.62c0.83,5.93,1.77,12.66,1.04,22.36
				c-0.16,2.05-1.66,4.04-3.83,5.06c-1.48,0.7-3.16,0.6-4.39-0.25c-2.09-1.46-1.87-4.19-1.75-5.65c1.1-13.38,0.87-26.93-0.68-40.28
				c-0.1-0.86-0.2-1.56-0.52-2.08c-0.33-0.54-0.97-0.97-1.75-1.19c-2.45-0.68-5.04,0.87-6.41,2.61c-1.69,2.15-2.4,5.01-2.87,7.53
				c-0.99,5.32-1.29,10.87-1.59,16.23c-0.33,6.14-0.68,12.5-2.06,18.64l-0.12,0.54c-0.41,1.9-0.92,4.26-2.81,5.54
				C48.4,150.2,47.72,150.39,47.17,150.39z M41.69,91.04c0.21,0,0.42,0.01,0.63,0.03c3.03,0.3,5.59,2.62,7.04,6.37
				c2.4,6.23,2.18,17.37,0.89,25.63c-0.28,1.8-0.71,4.06-1.16,6.45c-1.06,5.58-3.27,17.18-1.85,18.53c0.01-0.03,0.23-0.07,0.65-0.35
				c1.1-0.74,1.47-2.44,1.82-4.08l0.12-0.56c1.33-5.95,1.67-12.2,2-18.25c0.3-5.44,0.6-11.06,1.62-16.53
				c0.52-2.8,1.33-6.01,3.34-8.56c1.89-2.4,5.38-4.39,8.89-3.42c1.38,0.38,2.49,1.18,3.14,2.24c0.61,1,0.74,2.13,0.85,3.03
				c1.57,13.5,1.8,27.2,0.69,40.74c-0.15,1.8-0.07,2.95,0.75,3.53c0.53,0.37,1.31,0.39,2.03,0.05c1.4-0.66,2.4-1.91,2.49-3.11
				c0.71-9.45-0.21-16.04-1.03-21.85c-0.92-6.57-1.72-12.25,0.35-19.58c0.48-1.7,1.37-4.11,3.61-5.41c0.9-0.52,1.94-0.75,2.92-0.66
				c2.87,0.28,3.89,2.91,4.38,4.18c2.61,6.75,3.66,14,4.67,21c0.45,3.09,0.91,6.28,1.5,9.37c0.93,4.89,2.78,11.72,8.05,14.48
				c0.93,0.49,1.14,0.31,1.3,0.17c0.19-0.16,0.31-0.43,0.33-0.73c0.05-0.91-0.5-1.73-1.14-2.67l-0.18-0.27
				c-5.43-8.21-6.44-18.37-7.34-27.33c-0.31-3.12-1.91-11.95-3.61-21.3c-2.16-11.92-4.39-24.25-4.47-27.53
				c-0.19-8.03-1.28-14.25-3.43-19.58c-2.67-6.62-7.11-11.78-12.49-14.52l-0.07-0.04c-4.7-2.83-10.67,0.35-14.49,4.76
				c-3.55,4.08-5.43,9.46-7.25,14.65l-0.59,1.67C37.04,78.63,36.07,80.3,34.6,82.83l-0.39,0.67c-6.31,11.19-7.87,24.01-9.12,34.32
				c-0.87,7.18-1.56,12.85-3.7,15.64c-0.48,0.62-1,1.2-1.51,1.75c-1.22,1.34-2.38,2.61-2.65,4.34c-0.15,0.96,0.24,1.87,0.96,2.28
				c1.64,0.92,3.51-1.36,4.27-2.7c3.56-6.24,4.65-13.79,5.7-21.08c1.12-7.78,2.28-15.83,6.44-22.42
				C36.49,92.68,39.03,91.04,41.69,91.04z"/>
		</g>
		<g>
			<g>
				<path class="st0" d="M64.5,75.98c-4.15,0-7.71-3.27-8.45-7.77c-0.11-0.64,0.33-1.25,0.97-1.35c0.64-0.11,1.25,0.33,1.36,0.97
					c0.56,3.41,3.08,5.8,6.12,5.8c2.6,0,5.57-1.63,6.11-6.2c0.08-0.65,0.67-1.11,1.31-1.03c0.65,0.08,1.11,0.66,1.03,1.31
					C72.22,73.82,67.94,75.98,64.5,75.98z"/>
			</g>
			<g>
				<path class="st0" d="M73.28,57.02c0,1.2-0.67,2.18-1.49,2.18c-0.82,0-1.49-0.98-1.49-2.18c0-1.2,0.67-2.18,1.49-2.18
					C72.62,54.84,73.28,55.82,73.28,57.02z"/>
			</g>
			<g>
				<path class="st0" d="M60.18,57.02c0,1.2-0.67,2.18-1.49,2.18c-0.82,0-1.49-0.98-1.49-2.18c0-1.2,0.67-2.18,1.49-2.18
					C59.52,54.84,60.18,55.82,60.18,57.02z"/>
			</g>
			<g>
				<path class="st1" d="M82.69,64.78c0,2.4-1.94,4.34-4.34,4.34c-2.4,0-4.34-1.94-4.34-4.34c0-2.4,1.94-4.34,4.34-4.34
					C80.75,60.43,82.69,62.38,82.69,64.78z"/>
			</g>
			<g>
				<path class="st1" d="M43.92,64.78c0,2.4,1.94,4.34,4.34,4.34c2.4,0,4.34-1.94,4.34-4.34c0-2.4-1.94-4.34-4.34-4.34
					C45.86,60.43,43.92,62.38,43.92,64.78z"/>
			</g>
		</g>
	</g>
</g>
<g id="DESIGNED_BY_FREEPIK">
</g>
</svg>
