<?xml version="1.0" encoding="utf-8"?>
<!-- Generator: Adobe Illustrator 24.0.2, SVG Export Plug-In . SVG Version: 6.00 Build 0)  -->
<svg version="1.1" xmlns="http://www.w3.org/2000/svg" xmlns:xlink="http://www.w3.org/1999/xlink" x="0px" y="0px"
	 viewBox="0 0 112.5 177.46" style="enable-background:new 0 0 112.5 177.46;" xml:space="preserve">
<style type="text/css">
	.st0{fill:#3E3A36;}
	.st1{fill:#FFB3A9;}
	.st2{clip-path:url(#SVGID_2_);}
	.st3{clip-path:url(#SVGID_4_);}
	.st4{fill:#112129;}
</style>
<g id="OBJECTS">
	<g>
		<g>
			<g>
				<path class="st0" d="M85.37,118.16c-0.61,0-1.12-0.47-1.17-1.08c-0.05-0.65,0.43-1.22,1.08-1.27c1.63-0.13,3.22-0.83,4.49-1.88
					c-0.51-1.22-0.61-2.63-0.21-3.94c0.28-0.92,0.75-1.61,1.4-2.04c0.99-0.66,2.27-0.58,3.06,0.19c0.44,0.43,1.08,1.42,0.41,3.23
					c-0.38,1.04-0.94,2-1.63,2.85c0.1,0.09,0.21,0.16,0.32,0.23c0.57,0.35,1.33,0.45,2.04,0.27c0.65-0.16,1.17-0.52,1.47-1.01
					c0.33-0.56,1.06-0.74,1.62-0.41c0.56,0.33,0.74,1.06,0.41,1.62c-0.62,1.04-1.66,1.78-2.93,2.09c-1.33,0.33-2.73,0.13-3.84-0.55
					c-0.28-0.17-0.53-0.36-0.77-0.58c-1.61,1.28-3.58,2.11-5.65,2.28C85.44,118.16,85.4,118.16,85.37,118.16z M92.35,109.87
					c-0.03,0.01-0.06,0.02-0.09,0.04c-0.17,0.12-0.33,0.39-0.45,0.77c-0.1,0.33-0.15,0.68-0.14,1.02c0.21-0.37,0.39-0.75,0.54-1.15
					C92.33,110.21,92.36,109.99,92.35,109.87z"/>
			</g>
			<g>
				<g>
					<g>
						<path class="st0" d="M33.66,55.52c-0.1,0-0.2-0.01-0.3-0.04c-2.39-0.63-4.37-2.67-5.29-5.45c-0.76-2.29-0.75-4.66-0.67-7.1
							c0.16-4.69,0.51-9.42,1.04-14.08c0.08-0.74,0.66-1.31,1.4-1.39c0.74-0.08,1.43,0.36,1.67,1.07c0.76,2.24,1.71,3.74,2.97,4.71
							c1.12,0.86,2.52,1.33,4.01,1.82c1.1,0.36,2.25,0.74,3.33,1.3c3.87,2.02,6.36,6.3,6.18,10.66c-0.03,0.65-0.6,1.16-1.22,1.13
							c-0.65-0.03-1.16-0.57-1.13-1.23c0.14-3.41-1.88-6.9-4.91-8.48c-0.91-0.48-1.92-0.81-2.98-1.16
							c-1.61-0.53-3.28-1.08-4.71-2.19c-1.01-0.78-1.85-1.78-2.56-3.06c-0.35,3.65-0.59,7.32-0.71,10.97
							c-0.07,2.21-0.09,4.35,0.55,6.27c0.52,1.56,1.76,3.41,3.66,3.91c0.63,0.17,1,0.81,0.84,1.44
							C34.65,55.17,34.18,55.52,33.66,55.52z"/>
					</g>
					<g>
						<path class="st0" d="M35.76,52.95c-0.35,0-0.68-0.21-0.82-0.56c-0.6-1.49-1.29-2.96-2.06-4.37c-0.23-0.43-0.08-0.97,0.35-1.2
							c0.43-0.24,0.97-0.08,1.2,0.35c0.81,1.47,1.53,3.01,2.16,4.56c0.18,0.45-0.04,0.97-0.49,1.15
							C35.98,52.93,35.87,52.95,35.76,52.95z"/>
					</g>
					<g>
						<path class="st0" d="M38.78,49.83c-0.36,0-0.7-0.22-0.83-0.58l-1.58-4.27c-0.17-0.46,0.07-0.97,0.52-1.14
							c0.46-0.17,0.97,0.07,1.14,0.52l1.58,4.27c0.17,0.46-0.07,0.97-0.52,1.14C38.98,49.82,38.88,49.83,38.78,49.83z"/>
					</g>
					<g>
						<path class="st0" d="M42.09,48.41c-0.4,0-0.76-0.27-0.86-0.67l-1.08-4.34c-0.12-0.47,0.17-0.95,0.64-1.07
							c0.47-0.11,0.95,0.17,1.07,0.65l1.08,4.34c0.12,0.47-0.17,0.95-0.64,1.07C42.23,48.4,42.16,48.41,42.09,48.41z"/>
					</g>
				</g>
				<g>
					<g>
						<g>
							<path class="st0" d="M78.37,56.23c-0.34,0-0.68-0.15-0.92-0.44c-0.41-0.51-0.33-1.25,0.17-1.66
								c5.21-4.23,7.09-12.36,8.33-19.95c-1.13,0.44-2.1,0.9-3.11,1.39c-2.53,1.22-5.15,2.48-10.57,3.32
								c-1.69,0.26-3.21,1.49-3.97,3.2c-0.75,1.67-0.63,3.47,0.33,4.95c0.35,0.55,0.2,1.28-0.35,1.63c-0.54,0.35-1.28,0.2-1.63-0.35
								c-1.4-2.16-1.58-4.78-0.5-7.19c1.09-2.43,3.3-4.18,5.76-4.56c5.08-0.79,7.42-1.92,9.91-3.12c1.38-0.66,2.8-1.35,4.69-1.96
								c0.51-0.17,1.06-0.06,1.47,0.29c0.41,0.35,0.6,0.87,0.52,1.4c-1.3,8.4-3.21,17.79-9.39,22.8
								C78.89,56.14,78.63,56.23,78.37,56.23z"/>
						</g>
						<g>
							<path class="st0" d="M70.79,48.66c-0.14,0-0.29-0.04-0.42-0.11c-0.43-0.23-0.58-0.77-0.35-1.2c0.95-1.73,2.04-3.4,3.24-4.97
								c0.3-0.39,0.85-0.46,1.24-0.16c0.39,0.3,0.46,0.85,0.16,1.24c-1.14,1.49-2.18,3.09-3.09,4.74
								C71.41,48.5,71.1,48.66,70.79,48.66z"/>
						</g>
						<g>
							<path class="st0" d="M74.25,50.42c-0.2,0-0.41-0.07-0.57-0.21c-0.37-0.32-0.42-0.87-0.1-1.25l3.86-4.56
								c0.32-0.37,0.87-0.42,1.25-0.1c0.37,0.32,0.42,0.87,0.1,1.25l-3.86,4.56C74.75,50.32,74.5,50.42,74.25,50.42z"/>
						</g>
						<g>
							<path class="st0" d="M76.37,52.88c-0.2,0-0.41-0.07-0.57-0.21c-0.37-0.32-0.42-0.87-0.1-1.25l2.95-3.49
								c0.32-0.37,0.88-0.42,1.25-0.1c0.37,0.32,0.42,0.87,0.1,1.25l-2.95,3.49C76.87,52.77,76.62,52.88,76.37,52.88z"/>
						</g>
					</g>
					<g>
						<g>
							<path class="st0" d="M44.34,156.47c-0.13,0-0.27-0.02-0.4-0.05c-0.64-0.15-1.13-0.64-1.29-1.28
								c-0.79-3.17-0.98-6.47-1.17-9.66c-0.27-4.62-0.52-8.98-2.43-12.88c-1.1-2.24-2.67-4.17-4.34-6.22
								c-0.88-1.07-1.78-2.18-2.61-3.33c-4.15-5.79-6.67-13.1-7.49-21.74c-0.73-7.73-0.03-15.52,0.75-22.83
								c0.55-5.17,1.18-10.2,2.78-14.97c1.84-5.52,4.82-9.96,8.61-12.86c3.87-2.95,9.07-4.66,15.06-4.94
								c4.79-0.23,9.07,0.04,14.74,0.93l0.01,0c5.58,0.9,10.86,4.54,14.49,10.01c2.85,4.3,4.73,9.53,5.91,16.49
								c2.27,13.41,1.11,26.95-0.27,39.68c-0.67,6.15-1.94,12.27-6.72,15.45c-1.75,1.16-3.5,2.06-5.19,2.67
								c-0.92,0.33-1.21,2.59-0.66,5.25c0.15,0.72,0.59,1.33,1.22,1.69c0.62,0.36,1.34,0.42,2.02,0.19
								c2.43-0.84,4.29-1.37,5.52-1.58c0.48-0.08,0.96,0.11,1.25,0.5c0.29,0.39,0.34,0.91,0.13,1.35l-0.5,1.02
								c0.19-0.01,0.37-0.02,0.56-0.01c0.49,0.01,0.93,0.29,1.14,0.74c0.21,0.45,0.16,0.97-0.15,1.36c-1.89,2.41-3.7,3.94-5.69,4.83
								c-2.15,0.96-4.22,0.98-6.14,0.06c-3.65-1.75-6.53-6.72-8.78-15.19c-0.05-0.18-0.18-0.66-0.28-0.74
								c-0.04-0.02-0.16-0.05-0.52-0.06c-4.66-0.13-9.04,1.99-11.11,5.44c-1.72,2.86-1.88,6.31-2.05,9.95
								c-0.14,2.94-0.28,5.99-1.29,8.82c-0.2,0.57-0.68,0.99-1.27,1.12c-0.59,0.13-1.19-0.05-1.61-0.47l-0.15-0.15l-0.72,0.84
								C45.32,156.25,44.84,156.47,44.34,156.47z M54.93,47.99c-1,0-1.99,0.02-3.02,0.07c-5.5,0.26-10.25,1.8-13.74,4.46
								c-3.41,2.6-6.11,6.66-7.8,11.73c-1.52,4.55-2.13,9.44-2.67,14.48c-0.77,7.19-1.46,14.84-0.75,22.35
								c0.78,8.22,3.15,15.14,7.06,20.59c0.78,1.09,1.66,2.17,2.52,3.22c1.68,2.06,3.42,4.19,4.63,6.67
								c2.12,4.32,2.4,9.13,2.67,13.78c0.16,2.68,0.32,5.44,0.84,8.05l0.36-0.42c0.32-0.37,0.78-0.59,1.26-0.61
								c0.45-0.02,0.87,0.14,1.2,0.43c0.63-2.24,0.74-4.65,0.86-7.19c0.18-3.78,0.36-7.68,2.39-11.05
								c2.51-4.17,7.72-6.73,13.21-6.59c0.58,0.02,1.2,0.09,1.76,0.47c0.83,0.56,1.08,1.48,1.24,2.09
								c2.53,9.54,5.49,12.7,7.51,13.67c1.29,0.62,2.65,0.59,4.16-0.09c1.12-0.5,2.18-1.27,3.28-2.39
								c-0.22-0.11-0.42-0.26-0.58-0.46c-0.44-0.53-0.52-1.27-0.22-1.89l0.02-0.04c-0.86,0.25-1.87,0.57-3.01,0.96
								c-1.31,0.45-2.75,0.32-3.96-0.37c-1.22-0.7-2.08-1.89-2.36-3.27c-0.85-4.18-0.04-7.14,2.17-7.94
								c1.52-0.55,3.09-1.36,4.69-2.42c4.17-2.77,5.12-8.55,5.68-13.74c1.36-12.56,2.51-25.92,0.29-39.03
								c-1.12-6.62-2.88-11.56-5.55-15.57c-3.26-4.91-7.97-8.19-12.9-8.98C61.89,48.3,58.43,47.99,54.93,47.99z M84.24,141.69
								C84.24,141.69,84.24,141.69,84.24,141.69C84.24,141.69,84.24,141.69,84.24,141.69z M82.5,139.54
								C82.5,139.54,82.5,139.55,82.5,139.54C82.5,139.55,82.5,139.54,82.5,139.54z"/>
						</g>
						<g>
							<path class="st0" d="M25.22,98.98c-0.01,0-0.01,0-0.02,0c-4.94-0.11-9.81-2.42-13.02-6.19c-2.75-3.22-4.27-7.53-4.19-11.81
								c0.01-0.72,0.49-1.33,1.19-1.51c0.7-0.19,1.41,0.1,1.79,0.72l0.01,0.02c0.04-0.13,0.08-0.25,0.12-0.38
								c0.21-0.67,0.82-1.12,1.53-1.12c0,0,0,0,0,0c0.7,0,1.31,0.45,1.52,1.11c0.81,2.52,1.77,5.15,3.4,7.31
								c1.63,2.16,4.53,4.33,7.79,3.93c0.56-0.07,1.05,0.32,1.11,0.87c0.07,0.55-0.32,1.05-0.87,1.11c-4.11,0.5-7.66-2.1-9.63-4.71
								c-1.53-2.02-2.51-4.34-3.29-6.63c-0.03,0.15-0.07,0.3-0.09,0.45c-0.11,0.55-0.54,0.98-1.09,1.07
								c-0.56,0.1-1.11-0.15-1.4-0.64l-0.04-0.06c0.26,3.29,1.56,6.5,3.67,8.98c2.84,3.34,7.15,5.39,11.54,5.48
								c0.55,0.01,0.99,0.47,0.98,1.02C26.21,98.55,25.76,98.98,25.22,98.98z"/>
						</g>
						<g>
							<path class="st0" d="M87.28,97.45c-0.54,0-0.99-0.43-1-0.98c-0.01-0.55,0.43-1.01,0.98-1.02c4.38-0.1,8.69-2.15,11.54-5.48
								c2.11-2.48,3.41-5.68,3.67-8.98l-0.24,0.4c-0.26,0.44-0.76,0.66-1.25,0.56c-0.5-0.1-0.88-0.48-0.97-0.99
								c-0.05-0.27-0.1-0.54-0.16-0.8c-0.79,2.29-1.77,4.61-3.29,6.63c-1.97,2.61-5.53,5.21-9.63,4.71
								c-0.55-0.07-0.94-0.57-0.87-1.11c0.07-0.55,0.55-0.94,1.11-0.87c3.25,0.41,6.16-1.77,7.79-3.93c1.63-2.16,2.6-4.79,3.4-7.31
								c0.21-0.67,0.83-1.11,1.52-1.11c0,0,0,0,0,0c0.7,0,1.31,0.45,1.52,1.12c0.04,0.13,0.08,0.25,0.12,0.38l0.01-0.02
								c0.37-0.62,1.09-0.91,1.79-0.72c0.7,0.19,1.17,0.79,1.19,1.51c0.08,4.29-1.45,8.59-4.19,11.81
								c-3.21,3.76-8.07,6.08-13.02,6.19C87.3,97.45,87.29,97.45,87.28,97.45z M101.98,80.63
								C101.98,80.63,101.98,80.63,101.98,80.63C101.98,80.63,101.98,80.63,101.98,80.63z"/>
						</g>
					</g>
				</g>
			</g>
		</g>
		<g>
			<g>
				<circle class="st1" cx="73.5" cy="70.75" r="4.34"/>
			</g>
			<g>
				<circle class="st1" cx="37.67" cy="70.75" r="4.34"/>
			</g>
			<g>
				<g>
					<path class="st0" d="M54.21,86.18c-4.3,0-7.76-1.43-9.62-4.01c-1.94-2.69-2.05-6.6-0.26-9.73c1.56-2.73,4.44-4.79,7.9-5.66
						c2.28-0.57,4.85-0.65,7.62-0.22c2.15,0.33,3.99,1.25,5.32,2.66c1.96,2.08,4.38,6.93,0.98,11.91l0,0
						c-1.97,2.89-5.7,4.66-10.51,5C55.15,86.16,54.68,86.18,54.21,86.18z M56.43,68.06c-1.34,0-2.6,0.15-3.78,0.44
						c-2.99,0.75-5.47,2.51-6.79,4.82c-1.43,2.49-1.36,5.71,0.16,7.81c2.41,3.34,7.44,3.37,9.49,3.23c2.46-0.17,6.93-0.95,9.17-4.23
						c2.76-4.05,0.79-8.01-0.81-9.7c-1.06-1.12-2.54-1.86-4.3-2.12C58.49,68.14,57.44,68.06,56.43,68.06z M65.41,80.63L65.41,80.63
						L65.41,80.63z"/>
				</g>
				<g>
					<path class="st0" d="M60,93.62c-0.49,0-0.99-0.09-1.47-0.27c-1.01-0.38-1.77-1.14-2.1-2.07c-0.16-0.46,0.08-0.97,0.54-1.13
						c0.46-0.16,0.97,0.08,1.13,0.55c0.15,0.44,0.54,0.8,1.06,1c0.61,0.23,1.3,0.2,1.81-0.09c1.02-0.57,1.57-2.03,1.24-3.33
						c-0.12-0.47,0.17-0.95,0.64-1.07c0.48-0.12,0.96,0.17,1.08,0.64c0.52,2.06-0.38,4.35-2.09,5.31
						C61.29,93.47,60.65,93.62,60,93.62z"/>
				</g>
				<g>
					<g>
						<path class="st0" d="M60.96,59.46c0,1.2-0.67,2.18-1.49,2.18c-0.82,0-1.49-0.98-1.49-2.18c0-1.2,0.67-2.18,1.49-2.18
							C60.29,57.28,60.96,58.26,60.96,59.46z"/>
					</g>
					<g>
						<path class="st0" d="M53.06,59.46c0,1.2-0.67,2.18-1.49,2.18c-0.82,0-1.49-0.98-1.49-2.18c0-1.2,0.67-2.18,1.49-2.18
							C52.39,57.28,53.06,58.26,53.06,59.46z"/>
					</g>
				</g>
				<g>
					<path class="st0" d="M51.57,79.52c-0.49,0-0.88-0.4-0.88-0.88v-4.61c0-0.49,0.4-0.88,0.88-0.88s0.88,0.4,0.88,0.88v4.61
						C52.45,79.12,52.06,79.52,51.57,79.52z"/>
				</g>
				<g>
					<path class="st0" d="M57.98,79.42c-0.49,0-0.88-0.4-0.88-0.88v-4.61c0-0.49,0.4-0.88,0.88-0.88s0.88,0.4,0.88,0.88v4.61
						C58.87,79.02,58.47,79.42,57.98,79.42z"/>
				</g>
			</g>
		</g>
	</g>
</g>
<g id="DESIGNED_BY_FREEPIK">
</g>
</svg>
