<?xml version="1.0" encoding="utf-8"?>
<!-- Generator: Adobe Illustrator 24.0.2, SVG Export Plug-In . SVG Version: 6.00 Build 0)  -->
<svg version="1.1" xmlns="http://www.w3.org/2000/svg" xmlns:xlink="http://www.w3.org/1999/xlink" x="0px" y="0px"
	 viewBox="0 0 112.5 177.46" style="enable-background:new 0 0 112.5 177.46;" xml:space="preserve">
<style type="text/css">
	.st0{fill:#3E3A36;}
	.st1{fill:#FFB3A9;}
	.st2{clip-path:url(#SVGID_2_);}
	.st3{clip-path:url(#SVGID_4_);}
	.st4{fill:#112129;}
</style>
<g id="OBJECTS">
	<g>
		<g>
			<g>
				<path class="st0" d="M17.29,56.1c0-1.51,0.76-2.93,1.99-3.59c2.3-1.22,4.86,0.55,5.83,1.22l5.24,3.61
					c0.54,0.37,0.67,1.1,0.3,1.64c-0.37,0.54-1.1,0.67-1.64,0.3l-5.24-3.61c-1.01-0.7-2.46-1.57-3.38-1.08
					c-0.63,0.33-0.84,1.26-0.69,1.97c0.18,0.8,0.73,1.61,1.68,2.49c2.03,1.86,4.65,3.03,7.39,3.31c0.65,0.06,1.14,0.65,1.06,1.29
					c-0.06,0.65-0.64,1.12-1.29,1.06c-3.24-0.32-6.35-1.71-8.75-3.91c-1.33-1.21-2.11-2.43-2.39-3.72
					C17.32,56.75,17.29,56.42,17.29,56.1z"/>
			</g>
			<g>
				<path class="st0" d="M14.57,67.58c0-0.6,0.14-1.19,0.43-1.69c0.46-0.79,1.28-1.41,2.31-1.72c1.69-0.52,3.42-0.15,4.82,0.14
					l6.35,1.33c0.64,0.13,1.04,0.76,0.91,1.4c-0.13,0.64-0.76,1.05-1.4,0.91l-6.35-1.33c-1.19-0.25-2.54-0.53-3.64-0.19
					c-0.45,0.14-0.8,0.37-0.95,0.65c-0.2,0.34-0.15,0.9,0.12,1.35c0.28,0.47,0.79,0.91,1.52,1.29c2.58,1.35,5.8,1.22,8.63,1.11
					c0.65-0.03,1.2,0.48,1.23,1.13c0.04,0.64-0.48,1.2-1.13,1.23c-2.98,0.12-6.69,0.27-9.82-1.37c-1.14-0.6-1.94-1.31-2.46-2.17
					C14.76,68.99,14.57,68.28,14.57,67.58z"/>
			</g>
			<g>
				<path class="st0" d="M17.26,118.97c0-1.52,0.93-3.01,2.43-3.89c1.26-0.74,2.69-0.96,3.93-1.07c2-0.19,4.02-0.16,6,0.08
					c0.65,0.08,1.11,0.68,1.03,1.31c-0.08,0.65-0.67,1.11-1.31,1.03c-1.82-0.22-3.67-0.24-5.5-0.07c-0.97,0.09-2.09,0.25-2.95,0.76
					c-0.76,0.44-1.27,1.19-1.27,1.86c0,0,0,0,0,0c0,0.74,0.62,1.53,1.5,1.92c1.02,0.46,2.24,0.45,3.29,0.38
					c1.67-0.11,3.33-0.39,4.93-0.85c0.63-0.18,1.28,0.19,1.46,0.81c0.18,0.63-0.19,1.28-0.81,1.46c-1.76,0.5-3.59,0.81-5.42,0.93
					c-1.27,0.08-2.92,0.09-4.41-0.58c-1.75-0.79-2.88-2.38-2.89-4.06C17.26,118.98,17.26,118.97,17.26,118.97z"/>
			</g>
			<g>
				<path class="st0" d="M19.06,130.36c0-1.29,0.63-2.61,1.75-3.57c1.11-0.96,2.47-1.43,3.66-1.77c1.93-0.55,3.92-0.89,5.92-1.02
					c0.65-0.04,1.21,0.45,1.25,1.1c0.04,0.65-0.45,1.21-1.1,1.25c-1.83,0.12-3.65,0.43-5.42,0.93c-0.94,0.27-2,0.63-2.76,1.29
					c-0.67,0.58-1.03,1.41-0.91,2.06c0.14,0.72,0.89,1.39,1.82,1.62c1.08,0.26,2.28,0.03,3.31-0.23c1.62-0.41,3.2-0.99,4.69-1.73
					c0.58-0.29,1.29-0.05,1.58,0.54c0.29,0.59,0.05,1.29-0.54,1.58c-1.65,0.81-3.38,1.45-5.16,1.9c-1.23,0.31-2.85,0.62-4.44,0.24
					c-1.83-0.45-3.28-1.84-3.58-3.47C19.08,130.84,19.06,130.6,19.06,130.36z"/>
			</g>
			<g>
				<g>
					<path class="st0" d="M26.47,87.79c0-10.77,0.81-21.55,2.44-32.27l0.13-0.89l0.89-0.11c11.15-1.32,24.38,0.26,37.25,4.45
						c7,2.28,12.34,4.66,16.8,7.51c5.7,3.64,10.16,8.25,12.89,13.33c1.22,2.28,2.26,4.9,3.24,8.25c1.29,4.36,1.92,7.97,1.98,11.34
						c0,0.19,0.01,0.37,0.01,0.56c0,9.9-5.14,19.81-13.52,25.99c-5.22,3.85-11.4,6.14-16.76,7.88c-10.98,3.56-35.52,7.72-36.56,7.9
						l-0.98,0.17l-1.24-3.58c-1.18-3.41-2.1-6.79-2.72-10.07C27.75,114.85,26.47,101.32,26.47,87.79z M31.1,56.77
						c-3.48,23.64-2.97,47.54,1.53,71.05c0.61,3.16,1.49,6.44,2.64,9.74l0.59,1.69c4.77-0.83,25.65-4.54,35.24-7.65
						c5.18-1.68,11.14-3.88,16.09-7.53c7.78-5.74,12.56-14.93,12.56-24.09c0-0.17,0-0.34,0-0.52c-0.06-3.16-0.66-6.57-1.89-10.72
						c-0.94-3.2-1.91-5.68-3.06-7.8c-2.54-4.73-6.72-9.04-12.08-12.46c-4.29-2.74-9.45-5.04-16.26-7.26
						C54.24,57.24,41.73,55.67,31.1,56.77z"/>
				</g>
				<g>
					<path class="st0" d="M78.91,98.92c0-0.82,0.12-1.64,0.41-2.45c0.68-1.9,2.16-3.26,3.65-4.45c4.18-3.34,8.86-5.91,13.92-7.66
						c0.62-0.21,1.29,0.11,1.5,0.73c0.21,0.62-0.11,1.29-0.73,1.5c-4.8,1.66-9.25,4.11-13.22,7.28c-1.22,0.97-2.41,2.06-2.9,3.4
						c-0.62,1.71-0.07,3.73,0.59,5.82c1.25,3.96,2.59,7.96,3.97,11.9c0.46,1.32,0.99,2.82,1.96,3.85c0.75,0.8,2.04,1.38,3.04,0.95
						c0.6-0.26,1.29,0.01,1.55,0.61c0.26,0.6-0.01,1.29-0.61,1.55c-1.8,0.79-4.14,0.17-5.71-1.49c-1.31-1.39-1.95-3.22-2.46-4.69
						c-1.39-3.96-2.73-7.99-3.99-11.97C79.38,102.21,78.91,100.56,78.91,98.92z"/>
				</g>
				<g>
					<path class="st0" d="M63.59,77.81c0-0.92,0.15-1.8,0.31-2.6c1.07-5.13,3.54-9.85,7.15-13.65c0.45-0.47,1.19-0.49,1.67-0.05
						c0.47,0.45,0.49,1.19,0.05,1.67c-3.25,3.44-5.58,7.88-6.55,12.51c-0.21,1.02-0.4,2.2-0.14,3.26c0.4,1.62,1.8,2.92,3.26,4.07
						c4.62,3.66,9.79,6.46,15.37,8.34c0.62,0.21,0.95,0.88,0.74,1.49c-0.21,0.62-0.88,0.95-1.49,0.74
						c-5.84-1.96-11.25-4.9-16.09-8.73c-1.7-1.35-3.52-3.04-4.09-5.36C63.65,78.94,63.59,78.37,63.59,77.81z"/>
				</g>
				<g>
					<path class="st0" d="M61.41,96.63c0-4.97,0.83-10.34,3.68-14.96c0.34-0.55,1.07-0.73,1.62-0.39c0.56,0.34,0.73,1.07,0.39,1.62
						c-4.25,6.9-3.54,15.9-2.64,22.07c0.22,1.49,0.47,2.92,1.21,4c0.83,1.21,2.25,1.98,3.53,2.57c4.63,2.13,9.76,3.05,14.84,2.67
						c0.65-0.05,1.21,0.44,1.26,1.09c0.06,0.66-0.44,1.22-1.09,1.26c-5.48,0.41-11.01-0.59-16-2.88c-1.48-0.68-3.34-1.68-4.5-3.38
						c-1.02-1.5-1.35-3.29-1.6-4.99C61.74,102.78,61.41,99.78,61.41,96.63z"/>
				</g>
				<g>
					<path class="st0" d="M66.18,128.78c0-0.71,0.03-1.45,0.07-2.31c0.05-1.1,0.19-2.38,0.82-3.53c0.89-1.62,2.46-2.52,3.99-3.3
						c4.14-2.11,8.47-3.92,12.89-5.36c0.62-0.2,1.29,0.14,1.49,0.75c0.21,0.62-0.13,1.28-0.75,1.49c-4.3,1.41-8.52,3.16-12.55,5.22
						c-1.21,0.62-2.43,1.3-3,2.34c-0.4,0.73-0.49,1.67-0.53,2.5c-0.13,2.81-0.16,4.16,0.7,6.73c0.21,0.62-0.13,1.29-0.75,1.49
						c-0.62,0.21-1.29-0.13-1.49-0.75C66.37,131.96,66.18,130.5,66.18,128.78z"/>
				</g>
				<g>
					<path class="st0" d="M45.79,117.34c0-0.97,0.04-1.94,0.13-2.9c0.16-1.79,0.53-4.05,2.07-5.66c1.08-1.13,2.52-1.71,3.79-2.16
						c3.52-1.25,7.18-2.15,10.88-2.65c0.65-0.09,1.24,0.36,1.33,1.01c0.09,0.64-0.36,1.24-1.01,1.33
						c-3.54,0.48-7.04,1.34-10.41,2.54c-1.06,0.38-2.16,0.81-2.88,1.57c-1.03,1.07-1.3,2.82-1.42,4.23
						c-0.35,3.96,0.08,8.06,1.24,11.87c0.16,0.53,0.35,1.04,0.63,1.25c0.26,0.19,0.77,0.24,1.21,0.28l15.51,1.42
						c0.62,0.05,1.11,0.57,1.14,1.2c0.04,0.64-0.42,1.18-1.04,1.29l-12.12,2.11c-1.52,0.26-3.1,0.54-4.39,1.27
						c-1.25,0.71-2.07,1.86-2.1,2.95c-0.02,0.65-0.56,1.16-1.21,1.15c-0.65-0.02-1.15-0.57-1.15-1.21c0.05-1.93,1.32-3.82,3.3-4.94
						c1.64-0.93,3.51-1.25,5.15-1.54l3.92-0.68l-7.22-0.66c-0.67-0.06-1.59-0.15-2.38-0.71c-0.85-0.61-1.23-1.55-1.51-2.48
						C46.28,124.04,45.79,120.67,45.79,117.34z M66.65,131.81L66.65,131.81C66.64,131.81,66.64,131.81,66.65,131.81z"/>
				</g>
				<g>
					<path class="st0" d="M29.25,119.81c0-0.49,0.31-0.95,0.8-1.12c2.43-0.82,10.97-1.82,13.05-1.65l3.49,0.29
						c0.65,0.05,1.13,0.63,1.08,1.27c-0.05,0.65-0.63,1.13-1.27,1.08l-3.49-0.29c-1.75-0.15-10.01,0.83-12.1,1.54
						c-0.62,0.21-1.29-0.13-1.49-0.74C29.27,120.06,29.25,119.93,29.25,119.81z"/>
				</g>
				<g>
					<path class="st0" d="M43.71,85.87c0-4.05,0.6-7.86,2.75-11.15c1.09-1.67,2.4-2.86,3.88-3.53c1.49-0.67,3.08-0.8,4.59-0.88
						c3.57-0.17,7.18-0.1,10.74,0.22c0.65,0.06,1.13,0.64,1.07,1.28c-0.06,0.65-0.63,1.13-1.28,1.07
						c-3.45-0.31-6.95-0.38-10.41-0.21c-1.28,0.06-2.62,0.16-3.73,0.67c-1.07,0.49-2.04,1.39-2.88,2.68
						c-2.78,4.25-2.56,9.86-2.06,15.71c0.54,6.22,1.23,11.36,4.81,16.13c0.39,0.52,0.29,1.26-0.24,1.65
						c-0.52,0.39-1.26,0.29-1.65-0.24c-3.95-5.27-4.7-10.74-5.27-17.34C43.85,89.88,43.71,87.85,43.71,85.87z"/>
				</g>
				<g>
					<path class="st0" d="M40.86,55.36c0-0.46,0.27-0.9,0.73-1.09c0.6-0.25,1.29,0.03,1.54,0.63l0.45,1.1
						c1.46,3.55,2.83,6.9,5.84,8.88c1.09,0.72,2.35,1.23,3.44,1.63c4.32,1.6,8.83,2.55,13.43,2.85c0.65,0.04,1.14,0.58,1.1,1.25
						c-0.04,0.65-0.6,1.14-1.25,1.1c-4.82-0.31-9.56-1.31-14.09-2.99c-1.21-0.45-2.63-1.02-3.92-1.87c-3.62-2.38-5.2-6.23-6.72-9.95
						l-0.45-1.09C40.89,55.66,40.86,55.51,40.86,55.36z"/>
				</g>
				<g>
					<path class="st0" d="M28.24,65.29c0-0.56,0.4-1.06,0.98-1.16l3.4-0.6c3.08-0.54,6.25-1.1,9.41-1.5l0.39-0.05
						c1-0.13,1.94-0.24,2.86-0.47c0.63-0.16,1.27,0.23,1.43,0.86c0.15,0.63-0.23,1.27-0.86,1.43c-1.05,0.26-2.11,0.39-3.14,0.52
						l-0.39,0.05c-3.1,0.39-6.25,0.95-9.29,1.48l-3.41,0.6c-0.64,0.11-1.25-0.32-1.37-0.96C28.24,65.42,28.24,65.35,28.24,65.29z"/>
				</g>
				<g>
					<path class="st0" d="M27.46,79.94c0-0.63,0.49-1.15,1.12-1.18L45.25,78c0.65-0.03,1.2,0.47,1.23,1.12
						c0.02,0.65-0.47,1.2-1.12,1.23l-16.67,0.77c-0.65,0.03-1.2-0.47-1.23-1.12C27.46,79.98,27.46,79.96,27.46,79.94z"/>
				</g>
				<g>
					<path class="st0" d="M28.3,109.75c0-0.6,0.46-1.12,1.07-1.17c2.36-0.21,15.27-2.94,17.93-4.46c0.57-0.32,1.29-0.13,1.61,0.44
						c0.32,0.57,0.13,1.29-0.44,1.61c-3.24,1.86-16.64,4.56-18.89,4.76c-0.65,0.06-1.22-0.42-1.28-1.07
						C28.3,109.82,28.3,109.79,28.3,109.75z"/>
				</g>
			</g>
		</g>
		<g>
			<g>
				<defs>
					<path id="SVGID_1_" d="M45.39,56.19c-0.26-3.37-0.21-7.43,2.64-9.25c1.01-0.65,2.24-0.89,3.43-1c4.9-0.45,10.34,0.9,14.42-1.84
						c2.29-1.53,3.72-4.27,3.68-7.02c-0.04-2.76-1.55-5.45-3.88-6.91c-1.84-1.16-4.07-1.55-6.24-1.73
						c-3.6-0.29-7.28-0.06-10.68,1.14c-3.4,1.2-6.51,3.44-8.35,6.54c-1.38,2.32-2.01,5-2.43,7.66c-0.54,3.41-0.73,7.11,0.95,10.13"
						/>
				</defs>
				<clipPath id="SVGID_2_">
					<use xlink:href="#SVGID_1_"  style="overflow:visible;"/>
				</clipPath>
				<g class="st2">
					<path class="st1" d="M53.9,47.64c-2.4,0-4.34-1.94-4.34-4.34c0-2.4,1.94-4.34,4.34-4.34c2.4,0,4.34,1.94,4.34,4.34
						C58.24,45.7,56.3,47.64,53.9,47.64z"/>
				</g>
			</g>
			<g>
				<path class="st0" d="M36.42,48.36c0-1.82,0.2-3.53,0.39-4.76c0.38-2.38,1.01-5.45,2.58-8.08c1.88-3.16,5.07-5.66,8.97-7.04
					c3.23-1.14,6.99-1.55,11.17-1.21c2,0.16,4.58,0.53,6.77,1.91c2.69,1.69,4.39,4.72,4.43,7.89c0.04,3.23-1.57,6.25-4.21,8.02
					c-3.15,2.11-6.9,2.03-10.52,1.96c-1.49-0.03-3.02-0.06-4.45,0.07c-1.32,0.12-2.21,0.37-2.9,0.81c-2.18,1.4-2.45,3.4-2.18,6.83
					c0.04,0.64-0.43,1.22-1.08,1.27c-0.65,0.05-1.22-0.43-1.27-1.08c-0.26-3.33-0.22-6.76,3.26-9c1.32-0.84,2.81-1.07,3.96-1.18
					c1.56-0.14,3.16-0.11,4.71-0.08c3.41,0.07,6.63,0.13,9.16-1.56c1.95-1.31,3.22-3.7,3.16-6.03c-0.03-2.35-1.34-4.68-3.33-5.93
					c-1.76-1.1-3.97-1.41-5.71-1.55c-3.85-0.31-7.28,0.05-10.19,1.08c-3.38,1.2-6.13,3.34-7.73,6.03c-1.36,2.28-1.91,4.94-2.28,7.24
					c-0.69,4.37-0.39,8.13,0.82,10.31c0.32,0.57,0.11,1.29-0.46,1.6c-0.57,0.32-1.29,0.11-1.6-0.46
					C36.76,53.37,36.42,50.76,36.42,48.36z"/>
			</g>
			<g>
				<path class="st0" d="M47.94,33.43c0-2.24,1.44-4.43,2.79-5.52c0.51-0.41,1.25-0.33,1.66,0.17s0.33,1.25-0.18,1.66
					c-1.13,0.92-2.4,3.1-1.72,4.64c0.64,1.46,1.92,2.33,3.35,2.24c0.65-0.04,1.21,0.46,1.24,1.11c0.06,0.64-0.46,1.21-1.11,1.24
					c-2.43,0.14-4.59-1.26-5.64-3.65C48.05,34.71,47.94,34.07,47.94,33.43z"/>
			</g>
			<g>
				<path class="st0" d="M61.23,37.11c-1.2,0-2.18-0.67-2.18-1.49s0.98-1.49,2.18-1.49c1.2,0,2.18,0.67,2.18,1.49
					S62.43,37.11,61.23,37.11z"/>
			</g>
		</g>
	</g>
</g>
<g id="DESIGNED_BY_FREEPIK">
</g>
</svg>
