<svg id="Layer_1" data-name="Layer 1" xmlns="http://www.w3.org/2000/svg" viewBox="0 0 1028.01 41.24"><defs><style>.cls-1{fill:#686868;}</style></defs><title>costura</title><g id="Grupo_577" data-name="Grupo 577"><path id="Caminho_792" data-name="Caminho 792" class="cls-1" d="M96.63,5.51l4.6,30.22c.47,3-2.21,5.51-6,5.51H95.1c-3.76,0-7.2-2.47-7.66-5.51L82.84,5.51c-.46-3,2.22-5.51,6-5.51H89C92.74,0,96.17,2.46,96.63,5.51Z"/></g><g id="Grupo_577-2" data-name="Grupo 577"><path id="Caminho_792-2" data-name="Caminho 792" class="cls-1" d="M132.28,0h.14c3.77,0,6.68,2.46,6.5,5.51l-1.8,30.22c-.18,3-3.39,5.51-7.15,5.51h-.15c-3.77,0-6.67-2.47-6.49-5.51l1.79-30.22C125.3,2.46,128.5,0,132.28,0Z"/></g><g id="Grupo_578" data-name="Grupo 578"><path id="Caminho_793" data-name="Caminho 793" class="cls-1" d="M56.94,1l.13.05c3.54,1.29,5.65,4.7,4.71,7.59L52.45,37.38c-.93,2.9-4.57,4.19-8.11,2.89l-.13,0c-3.54-1.31-5.65-4.71-4.71-7.6L48.83,3.86C49.77,1,53.4-.33,56.94,1Z"/></g><g id="Grupo_579" data-name="Grupo 579"><path id="Caminho_794" data-name="Caminho 794" class="cls-1" d="M12.32,0h.14c3.77,0,6.46,2.46,6,5.51L13.86,35.73c-.47,3-3.9,5.51-7.68,5.51H6c-3.77,0-6.45-2.47-6-5.51L4.65,5.51C5.12,2.46,8.55,0,12.32,0Z"/></g><g id="Grupo_577-3" data-name="Grupo 577"><path id="Caminho_792-3" data-name="Caminho 792" class="cls-1" d="M257.63,5.51l4.6,30.22c.47,3-2.21,5.51-6,5.51h-.15c-3.76,0-7.2-2.47-7.66-5.51l-4.6-30.22c-.46-3,2.22-5.51,6-5.51H250C253.74,0,257.17,2.46,257.63,5.51Z"/></g><g id="Grupo_577-4" data-name="Grupo 577"><path id="Caminho_792-4" data-name="Caminho 792" class="cls-1" d="M293.28,0h.14c3.77,0,6.68,2.46,6.5,5.51l-1.8,30.22c-.18,3-3.39,5.51-7.15,5.51h-.15c-3.77,0-6.67-2.47-6.49-5.51l1.79-30.22C286.3,2.46,289.5,0,293.28,0Z"/></g><g id="Grupo_578-2" data-name="Grupo 578"><path id="Caminho_793-2" data-name="Caminho 793" class="cls-1" d="M217.94,1l.13.05c3.54,1.29,5.65,4.7,4.71,7.59l-9.33,28.77c-.93,2.9-4.57,4.19-8.11,2.89l-.13,0c-3.54-1.31-5.65-4.71-4.71-7.6l9.33-28.77C210.77,1,214.4-.33,217.94,1Z"/></g><g id="Grupo_579-2" data-name="Grupo 579"><path id="Caminho_794-2" data-name="Caminho 794" class="cls-1" d="M173.32,0h.14c3.77,0,6.46,2.46,6,5.51l-4.59,30.22c-.47,3-3.9,5.51-7.68,5.51H167c-3.77,0-6.45-2.47-6-5.51l4.6-30.22C166.12,2.46,169.55,0,173.32,0Z"/></g><g id="Grupo_577-5" data-name="Grupo 577"><path id="Caminho_792-5" data-name="Caminho 792" class="cls-1" d="M418.63,5.51l4.6,30.22c.47,3-2.21,5.51-6,5.51h-.15c-3.76,0-7.2-2.47-7.66-5.51l-4.6-30.22c-.46-3,2.22-5.51,6-5.51H411C414.74,0,418.17,2.46,418.63,5.51Z"/></g><g id="Grupo_577-6" data-name="Grupo 577"><path id="Caminho_792-6" data-name="Caminho 792" class="cls-1" d="M454.28,0h.14c3.77,0,6.68,2.46,6.5,5.51l-1.8,30.22c-.18,3-3.39,5.51-7.15,5.51h-.15c-3.77,0-6.67-2.47-6.49-5.51l1.79-30.22C447.3,2.46,450.5,0,454.28,0Z"/></g><g id="Grupo_578-3" data-name="Grupo 578"><path id="Caminho_793-3" data-name="Caminho 793" class="cls-1" d="M378.94,1l.13.05c3.54,1.29,5.65,4.7,4.71,7.59l-9.33,28.77c-.93,2.9-4.57,4.19-8.11,2.89l-.13,0c-3.54-1.31-5.65-4.71-4.71-7.6l9.33-28.77C371.77,1,375.4-.33,378.94,1Z"/></g><g id="Grupo_579-3" data-name="Grupo 579"><path id="Caminho_794-3" data-name="Caminho 794" class="cls-1" d="M334.32,0h.14c3.77,0,6.46,2.46,6,5.51l-4.59,30.22c-.47,3-3.9,5.51-7.68,5.51H328c-3.77,0-6.45-2.47-6-5.51l4.6-30.22C327.12,2.46,330.55,0,334.32,0Z"/></g><g id="Grupo_577-7" data-name="Grupo 577"><path id="Caminho_792-7" data-name="Caminho 792" class="cls-1" d="M579.63,5.51l4.6,30.22c.47,3-2.21,5.51-6,5.51h-.15c-3.76,0-7.2-2.47-7.66-5.51l-4.6-30.22c-.46-3,2.22-5.51,6-5.51H572C575.74,0,579.17,2.46,579.63,5.51Z"/></g><g id="Grupo_577-8" data-name="Grupo 577"><path id="Caminho_792-8" data-name="Caminho 792" class="cls-1" d="M615.28,0h.14c3.77,0,6.68,2.46,6.5,5.51l-1.8,30.22c-.18,3-3.39,5.51-7.15,5.51h-.15c-3.77,0-6.67-2.47-6.49-5.51l1.79-30.22C608.3,2.46,611.5,0,615.28,0Z"/></g><g id="Grupo_578-4" data-name="Grupo 578"><path id="Caminho_793-4" data-name="Caminho 793" class="cls-1" d="M539.94,1l.13.05c3.54,1.29,5.65,4.7,4.71,7.59l-9.33,28.77c-.93,2.9-4.57,4.19-8.11,2.89l-.13,0c-3.54-1.31-5.65-4.71-4.71-7.6l9.33-28.77C532.77,1,536.4-.33,539.94,1Z"/></g><g id="Grupo_579-4" data-name="Grupo 579"><path id="Caminho_794-4" data-name="Caminho 794" class="cls-1" d="M495.32,0h.14c3.77,0,6.46,2.46,6,5.51l-4.59,30.22c-.47,3-3.9,5.51-7.68,5.51H489c-3.77,0-6.45-2.47-6-5.51l4.6-30.22C488.12,2.46,491.55,0,495.32,0Z"/></g><g id="Grupo_577-9" data-name="Grupo 577"><path id="Caminho_792-9" data-name="Caminho 792" class="cls-1" d="M740.63,5.51l4.6,30.22c.47,3-2.21,5.51-6,5.51h-.15c-3.76,0-7.2-2.47-7.66-5.51l-4.6-30.22c-.46-3,2.22-5.51,6-5.51H733C736.74,0,740.17,2.46,740.63,5.51Z"/></g><g id="Grupo_577-10" data-name="Grupo 577"><path id="Caminho_792-10" data-name="Caminho 792" class="cls-1" d="M776.28,0h.14c3.77,0,6.68,2.46,6.5,5.51l-1.8,30.22c-.18,3-3.39,5.51-7.15,5.51h-.15c-3.77,0-6.67-2.47-6.49-5.51l1.79-30.22C769.3,2.46,772.5,0,776.28,0Z"/></g><g id="Grupo_578-5" data-name="Grupo 578"><path id="Caminho_793-5" data-name="Caminho 793" class="cls-1" d="M700.94,1l.13.05c3.54,1.29,5.65,4.7,4.71,7.59l-9.33,28.77c-.93,2.9-4.57,4.19-8.11,2.89l-.13,0c-3.54-1.31-5.65-4.71-4.71-7.6l9.33-28.77C693.77,1,697.4-.33,700.94,1Z"/></g><g id="Grupo_579-5" data-name="Grupo 579"><path id="Caminho_794-5" data-name="Caminho 794" class="cls-1" d="M656.32,0h.14c3.77,0,6.46,2.46,6,5.51l-4.59,30.22c-.47,3-3.9,5.51-7.68,5.51H650c-3.77,0-6.45-2.47-6-5.51l4.6-30.22C649.12,2.46,652.55,0,656.32,0Z"/></g><g id="Grupo_577-11" data-name="Grupo 577"><path id="Caminho_792-11" data-name="Caminho 792" class="cls-1" d="M901.63,5.51l4.6,30.22c.47,3-2.21,5.51-6,5.51h-.15c-3.76,0-7.2-2.47-7.66-5.51l-4.6-30.22c-.46-3,2.22-5.51,6-5.51H894C897.74,0,901.17,2.46,901.63,5.51Z"/></g><g id="Grupo_577-12" data-name="Grupo 577"><path id="Caminho_792-12" data-name="Caminho 792" class="cls-1" d="M937.28,0h.14c3.77,0,6.68,2.46,6.5,5.51l-1.8,30.22c-.18,3-3.39,5.51-7.15,5.51h-.15c-3.77,0-6.67-2.47-6.49-5.51l1.79-30.22C930.3,2.46,933.5,0,937.28,0Z"/></g><g id="Grupo_578-6" data-name="Grupo 578"><path id="Caminho_793-6" data-name="Caminho 793" class="cls-1" d="M861.94,1l.13.05c3.54,1.29,5.65,4.7,4.71,7.59l-9.33,28.77c-.93,2.9-4.57,4.19-8.11,2.89l-.13,0c-3.54-1.31-5.65-4.71-4.71-7.6l9.33-28.77C854.77,1,858.4-.33,861.94,1Z"/></g><g id="Grupo_579-6" data-name="Grupo 579"><path id="Caminho_794-6" data-name="Caminho 794" class="cls-1" d="M817.32,0h.14c3.77,0,6.46,2.46,6,5.51l-4.59,30.22c-.47,3-3.9,5.51-7.68,5.51H811c-3.77,0-6.45-2.47-6-5.51l4.6-30.22C810.12,2.46,813.55,0,817.32,0Z"/></g><g id="Grupo_578-7" data-name="Grupo 578"><path id="Caminho_793-7" data-name="Caminho 793" class="cls-1" d="M1022.94,1l.13.05c3.54,1.29,5.65,4.7,4.71,7.59l-9.33,28.77c-.93,2.9-4.57,4.19-8.11,2.89l-.13,0c-3.54-1.31-5.65-4.71-4.71-7.6l9.33-28.77C1015.77,1,1019.4-.33,1022.94,1Z"/></g><g id="Grupo_579-7" data-name="Grupo 579"><path id="Caminho_794-7" data-name="Caminho 794" class="cls-1" d="M978.32,0h.14c3.77,0,6.46,2.46,6,5.51l-4.59,30.22c-.47,3-3.9,5.51-7.68,5.51H972c-3.77,0-6.45-2.47-6-5.51l4.6-30.22C971.12,2.46,974.55,0,978.32,0Z"/></g></svg>