<?xml version="1.0" encoding="utf-8"?>
<!-- Generator: Adobe Illustrator 24.1.2, SVG Export Plug-In . SVG Version: 6.00 Build 0)  -->
<!DOCTYPE svg PUBLIC "-//W3C//DTD SVG 1.1//EN" "http://www.w3.org/Graphics/SVG/1.1/DTD/svg11.dtd" [
	<!ENTITY ns_extend "http://ns.adobe.com/Extensibility/1.0/">
	<!ENTITY ns_ai "http://ns.adobe.com/AdobeIllustrator/10.0/">
	<!ENTITY ns_graphs "http://ns.adobe.com/Graphs/1.0/">
	<!ENTITY ns_vars "http://ns.adobe.com/Variables/1.0/">
	<!ENTITY ns_imrep "http://ns.adobe.com/ImageReplacement/1.0/">
	<!ENTITY ns_sfw "http://ns.adobe.com/SaveForWeb/1.0/">
	<!ENTITY ns_custom "http://ns.adobe.com/GenericCustomNamespace/1.0/">
	<!ENTITY ns_adobe_xpath "http://ns.adobe.com/XPath/1.0/">
]>
<svg version="1.1" id="Camada_1" xmlns:x="&ns_extend;" xmlns:i="&ns_ai;" xmlns:graph="&ns_graphs;"
	 xmlns="http://www.w3.org/2000/svg" xmlns:xlink="http://www.w3.org/1999/xlink" x="0px" y="0px" viewBox="0 0 512 512"
	 style="enable-background:new 0 0 512 512;" xml:space="preserve">
<style type="text/css">
	.st0{fill:#FFFFFF;}
</style>
<metadata>
	<sfw  xmlns="&ns_sfw;">
		<slices></slices>
		<sliceSourceBounds  bottomLeftOrigin="true" height="512.3" width="512.2" x="0.5" y="0.1"></sliceSourceBounds>
	</sfw>
</metadata>
<g>
	<path class="st0" d="M273.7,511.7c-1.9,0-3.5,0-5.1,0c-79.2,0-158.4,0-237.6,0c-19,0-30.6-11.6-30.6-30.7c0-150.1,0-300.2,0-450.4
		c0-19.2,11.6-31,30.8-31c150.1,0,300.2,0.1,450.4-0.1c18.5,0,31,13.7,31,31c-0.3,150.1-0.3,300.2,0,450.4c0,17.7-13.2,31.2-31,31
		c-40.8-0.6-81.6-0.2-122.4-0.2c-1.6,0-3.2,0-5.1,0c0-66.1,0-132,0-198.2c22,0,43.8,0,66.1,0c3.3-25.7,6.6-51.1,10-77.1
		c-25.5,0-50.7,0-76.1,0c-0.2-1.2-0.3-1.8-0.3-2.4c0-17.6,0-35.2,0.1-52.8c0-2.9,0.4-5.9,1-8.7c2.8-13,11.1-20.4,25.3-22.3
		c3.8-0.5,7.7-0.8,11.5-0.8c12.1-0.1,24.3,0,36.4-0.1c1.4,0,2.9,0,4.5,0c0-23.2,0-45.9,0-69.2c-6.3-0.5-12.7-1.4-19-1.5
		c-18.5-0.3-37.1-1.7-55.5-0.3c-44.6,3.4-76.8,34.6-82.5,79.1c-1.5,12-1.5,24.2-1.7,36.3c-0.3,14-0.1,28-0.1,42.5
		c-22.2,0-44.2,0-66.5,0c0,26,0,51.4,0,77.2c22.1,0,44,0,66.2,0C273.7,379.6,273.7,445.3,273.7,511.7z"/>
</g>
</svg>
