<?xml version="1.0" encoding="utf-8"?>
<!-- Generator: Adobe Illustrator 24.0.2, SVG Export Plug-In . SVG Version: 6.00 Build 0)  -->
<svg version="1.1" id="Layer_1" xmlns="http://www.w3.org/2000/svg" xmlns:xlink="http://www.w3.org/1999/xlink" x="0px" y="0px"
	 viewBox="0 0 372.1 3444.5" style="enable-background:new 0 0 372.1 3444.5;" xml:space="preserve">
<style type="text/css">
	.st0{fill:#FFFFFF;}
	.st1{fill:#AAAAA9;stroke:#CECECE;stroke-width:8;}
	.st2{clip-path:url(#SVGID_2_);}
	.st3{fill:#9D9D9C;}
	.st4{fill:#F9B233;}
	.st5{fill:#CECECE;}
	.st6{opacity:0.2;fill:#1D1D1B;enable-background:new    ;}
	.st7{opacity:0.2;}
	.st8{fill:#1D1D1B;}
</style>
<path id="Caminho_781" class="st0" d="M211.3,28.2C200.3,42.7,43.9,226,43.9,630.6c0,292.1,27,399.2,116.2,666.1
	c34.4,102.9,58.2,223,58.2,375.3c0,547.7-174.4,666.7-174.4,1069.7s176.9,643.1,176.9,643.1l88.7-4V28.2
	C309.5,28.2,220,28.2,211.3,28.2z"/>
<g id="Grupo_575" transform="translate(-616.897 48.131)">
	<g id="Caminho_595">
		<path class="st1" d="M801.7,3294.9c-1.9-2-46.3-49.7-90.7-148c-25.8-57.3-46.4-120.2-61.2-186.9c-18.4-83.2-27.7-172.7-27.7-266
			c0-188.8,37.9-316.7,78-452.1c47.4-160,96.4-325.5,96.4-617.6c0-133.3-18.7-254.1-57.2-369.3c-47.4-142-75-248-92.3-354.4
			c-17.5-107.8-24.9-163.8-24.9-317.7c0-93.7,15.9-231.9,36.3-312.5C677.8,194,695.6,142,721.6,88.6c44.7-92,79.4-135,81.3-136.7
			L815.5-34l12.7,14.1c-0.4,0.4-32.2,41.1-73.6,127.3c-38.4,79.8-98.5,271.5-94.5,475.4c5.7,290.4,34.7,389.2,115.2,660
			c39.8,119.1,59.1,243.8,59.1,381.3c0,133-10.3,252.9-31.4,366.4c-18.6,100.2-43,182.4-66.5,261.9c-39.3,132.7-76.4,258-76.4,441.4
			c0,204.8,46.5,350.8,85.5,437.3c41.8,92.6,83.3,137.1,83.7,137.6L801.7,3294.9z"/>
	</g>
</g>
<g>
	<defs>
		<rect id="SVGID_1_" y="3112" width="372.1" height="332.5"/>
	</defs>
	<clipPath id="SVGID_2_">
		<use xlink:href="#SVGID_1_"  style="overflow:visible;"/>
	</clipPath>
	<g class="st2">
		<g id="Grupo_566" transform="translate(-37.094 2644.298) rotate(18)">
			<g id="Grupo_565" transform="translate(285.98 225.312)">
				<g id="Grupo_562" transform="translate(54.895 96.288)">
					<path id="Caminho_759" class="st3" d="M14,595.6L198.2,84l11,3.9L25.1,599.5c-1.1,3-13.2,29.1-16.2,28H8.8
						C5.8,626.4,13,598.6,14,595.6z"/>
					<path id="Caminho_760" class="st4" d="M195.9,107.7c-10.1-3.6-15.4-14.8-11.8-24.9c3.6-10.1,14.8-15.4,24.9-11.8
						c10.1,3.6,15.4,14.8,11.8,24.9S206,111.3,195.9,107.7L195.9,107.7z"/>
				</g>
				<path id="Caminho_761" class="st5" d="M344.4,417.6c8.4,99.4-65.2,186.8-164.6,195.2S-7,547.6-15.4,448.2S49.8,261.4,149.2,253
					l0,0C248.5,244.5,335.9,318.2,344.4,417.6L344.4,417.6z"/>
				<path id="Caminho_762" class="st6" d="M310.4,326.5c3.3,11.7,5.4,23.6,6.5,35.7c9,106.3-69.8,199.8-176.1,208.9
					c-42.5,3.7-85-6.9-120.9-30c59.7,79.9,172.8,96.2,252.7,36.5C351.9,518.4,368.7,406.4,310.4,326.5z"/>
				<g id="Grupo_564" transform="translate(153.191 50.5)">
					<path id="Caminho_778" class="st3" d="M8.9,517.8l-2.1,133c-0.1,3.3,2.4,32.7,6,32.6h0.1c3.6,0,6.8-29.4,6.9-32.7l2.1-134.2
						L8.9,517.8z"/>
					<path id="Caminho_779" class="st3" d="M32.1,334.4l3-192.1l-13,0l-3,193.2L32.1,334.4z"/>
					<path id="Caminho_780" class="st4" d="M31,151.8c-11.9,0-21.5-8.9-21.3-19.9c0.2-11,9.9-20,21.9-20c11.9,0,21.5,8.9,21.3,19.9
						C52.7,142.8,42.9,151.8,31,151.8z"/>
				</g>
				<g id="Grupo_567" transform="translate(0.309 174.63)" class="st7">
					<path id="Caminho_763" class="st8" d="M49.8,119.9l271.5,228.9c5.6-9.8,10.3-20.1,14-30.8L77.8,100.9
						C67.9,106.3,58.5,112.7,49.8,119.9z"/>
					<path id="Caminho_764" class="st8" d="M86.5,96.4l251.8,212.3c3.5-12.1,5.6-24.5,6.5-37.1L121.9,83.7
						C109.7,86.7,97.8,90.9,86.5,96.4z"/>
					<path id="Caminho_765" class="st8" d="M338.9,212.3L181.3,79.4c-10.7-1-21.4-1.1-32.1-0.2c-5.4,0.5-10.8,1.2-16.1,2.1L345,260
						c0-5.4-0.1-10.8-0.6-16.2C343.6,233.2,341.7,222.6,338.9,212.3z"/>
					<path id="Caminho_766" class="st8" d="M198.1,81.8l135.6,114.4C311.6,136.9,260.2,93.6,198.1,81.8z"/>
					<path id="Caminho_767" class="st8" d="M167.8,231.8L39.5,389.4c7.8,7.5,16.3,14.3,25.4,20.3l127.7-157L167.8,231.8z"/>
					<path id="Caminho_768" class="st8" d="M76.4,416.8c10.8,6,22.1,11,33.9,14.6l-4.8-56.1L76,411.7L76.4,416.8z"/>
					<path id="Caminho_769" class="st8" d="M119.6,434.1c10.8,2.8,21.9,4.6,33.1,5.3l-9.4-110.5l-29.6,36.4L119.6,434.1z"/>
					<path id="Caminho_770" class="st8" d="M151.5,318.9l10.3,120.9c6,0.1,12.1-0.1,18.1-0.6c4.9-0.4,9.6-1.1,14.4-1.9l-13.2-154.8
						L151.5,318.9z"/>
					<path id="Caminho_771" class="st8" d="M189.3,272.4l13.9,163.1c10.9-2.4,21.5-5.7,31.8-10.1l-12.5-147.2l-22.5-19L189.3,272.4z
						"/>
					<path id="Caminho_772" class="st8" d="M243.7,421.5c11-5.4,21.4-11.8,31-19.3l-7.3-86.1l-35.2-29.7L243.7,421.5z"/>
					<path id="Caminho_773" class="st8" d="M283.2,395.3c11.3-9.8,21.3-21,29.8-33.3l-0.7-7.9l-35.2-29.7L283.2,395.3z"/>
					<path id="Caminho_774" class="st8" d="M136,205L12.6,356.7c6,9.4,12.9,18.2,20.6,26.3L161,226L136,205z"/>
					<path id="Caminho_775" class="st8" d="M104.2,178.2L-7.1,315c3.8,11.6,8.7,22.8,14.8,33.5l121.5-149.3L104.2,178.2z"/>
					<path id="Caminho_776" class="st8" d="M72.4,151.4L-15.9,260c0,4.8,0.2,9.6,0.6,14.5c0.9,10.1,2.6,20.2,5.1,30L97.3,172.3
						L72.4,151.4z"/>
					<path id="Caminho_777" class="st8" d="M42.5,126.2C8.9,157-11.9,199.5-15.4,245l80.9-99.5L42.5,126.2z"/>
				</g>
			</g>
		</g>
	</g>
</g>
</svg>
