<svg xmlns="http://www.w3.org/2000/svg" viewBox="0 0 200 130"><defs><style>.a{fill:#622ea7;}.b{fill:#8643de;}.c{fill:#fff;}</style></defs><title>menu-path-</title><path class="a" d="M133.83,1.52c50.08,7.67,77.66,42.31,61.59,77.37s-69.68,57.27-119.76,49.59S-2,86.17,14.07,51.11,83.75-6.16,133.83,1.52Z"/><path class="b" d="M106.43,1.77c52.7,6,90.75,37.95,85,71.45S138.27,129,85.57,123.09-5.18,85.15.58,51.65,53.73-4.18,106.43,1.77Z"/><path class="c" d="M76.83,100.76c-.83,1.86-2-1-2.67-2.41a17.19,17.19,0,0,1-5.4-1.12c-4.08,4.38-5.09,2.1-1.24-.51-2.37-1-.29-2,.86-1,6-9.55,2.27-7.2,6.63,1.36,1.36-.51,2.32,1.17.6,1.22A17.2,17.2,0,0,1,76.83,100.76ZM73.58,97.1a35.49,35.49,0,0,1-1.75-4.61,18,18,0,0,1-2.23,3.73A15.59,15.59,0,0,0,73.58,97.1Z"/><path class="c" d="M86.68,95.64c.1,3.3-.69,6-1.57,4.23a29,29,0,0,0,.42-4.26c-.49-5.11-3.34-1-2.62,2.42-.11.66.58,2.09-.46,2.11s-.57-4.36-.57-5.35c0-.61-.32-.92-1-.92-2.52.14-1.58,4.57-1.6,6.19-2.12,3.1-1.57-8.74-.07-8.6,1-.06.33,1.54.3,2a1.73,1.73,0,0,1,2.79-.09C84,91,87,92,86.68,95.64Z"/><path class="c" d="M89.9,92.89c-.14,2.28.36,8.51-1.65,6.31C89,98.42,87.93,89.8,89.9,92.89Zm.27-2.38c.12,1.18-1.72,1.16-1.7.06S90.23,89.33,90.17,90.51Z"/><path class="c" d="M97.89,91.68c0,.72-.94.43-1.38.42,2,2.16-.17,5.2-3,4.45a3.29,3.29,0,0,0-.84,1c2.83-.87,5.82,1.19,3.21,3.3-1,.82-5.73,1.13-4.86-1.16.39-.37.8,0,1.06.32.8.56,3.36.44,3.47-.75-.74-2-6.62,1.29-3-3-2.32-1.68-.11-5.51,2.57-4.77C95.33,91,98.09,91,97.89,91.68ZM96.08,94c0-2.25-3.41-1.85-3.21.28C92.75,96.13,96.32,95.92,96.08,94Z"/><path class="c" d="M105.28,99.37c-.27,1.27-1.25.75-1.45-.81-6.19,6.69-6-9.71-3.43-6.46-.46,2-1,9.16,2.62,6,.89-.93.43-4.42.67-5.14C105.6,89.16,104.5,98.9,105.28,99.37Z"/><path class="c" d="M88.48,103a42.78,42.78,0,0,0-.64,9.86c-1.76,3.24-5.77-6.26-6.86-8.09-1,1.5,0,7.5-1.43,9-1.55-.6-.42-10.63,1.37-11.41,2,2.63,3.48,7.22,5.57,9.19C86.5,110.07,86.56,99.86,88.48,103Z"/><path class="c" d="M103.46,104.54c-.13,2.4-3.2,11.95-4.28,5.08-4.15-8.82-.58-7.27,1.38.56C101.38,109.91,102.28,100.86,103.46,104.54Z"/><path class="c" d="M110.78,107c-.25,1.93-3.79,1.52-5.24,1.55-.13,2.45,2.08,3.12,3.41,1.41.57-.62,1.42.38.85.92-3.71,3.8-7.37-1.94-4.55-5.35C106.84,103.05,110.89,104,110.78,107Zm-1.25.08c-.06-2.93-3.52-2-3.87.36A10.87,10.87,0,0,0,109.53,107.12Z"/><path class="c" d="M113.53,112.3c-1.56,4.45-2.09-9.83-.68-9.22C114.19,103.46,113,110.55,113.53,112.3Z"/><path class="c" d="M93,109.1a10.12,10.12,0,0,0,2-.68l-.23-.26a9.13,9.13,0,0,1-1.72.57C93,108.86,93,109,93,109.1Z"/><path class="c" d="M92.85,110.44l0,.21a9.67,9.67,0,0,0,3.49-1.13l-.22-.14A7.22,7.22,0,0,1,92.85,110.44Z"/><path class="c" d="M93,109.27c0,.16,0,.32,0,.47a9.07,9.07,0,0,0,2.46-.89l-.33-.31A9.44,9.44,0,0,1,93,109.27Z"/><path class="c" d="M93.55,105.35a6.77,6.77,0,0,1-.9,0c0,.16.08.31.11.46a7.44,7.44,0,0,0,.78-.2A1,1,0,0,1,93.55,105.35Z"/><path class="c" d="M93.67,106.24a3.77,3.77,0,0,1-.1-.43c-.26.07-.52.14-.78.19,0,.16,0,.31.08.47C93.13,106.4,93.4,106.33,93.67,106.24Z"/><path class="c" d="M92.91,109.91c0,.13,0,.24,0,.36a7.12,7.12,0,0,0,3.07-1l-.41-.32A9.15,9.15,0,0,1,92.91,109.91Z"/><path class="c" d="M95.81,105.12c-3.7-3.57-8.15,2.24-5.29,5.68C94.06,114.3,98.87,108.5,95.81,105.12Zm-3.64-.83c.74.15,1.51-.14,2.23,0a6.38,6.38,0,0,1-2.5.1Zm-.86.36a7.18,7.18,0,0,0,3.62-.16l.15.08a6.83,6.83,0,0,1-3.9.17Zm-1.49,4.64a6.07,6.07,0,0,1-.09-1.91A5.86,5.86,0,0,1,89.82,109.29Zm.36,1-.12-.26a5.69,5.69,0,0,0-.2-3.38,2,2,0,0,1,.08-.26A5.77,5.77,0,0,1,90.18,110.3Zm.34.5-.09-.12a7.87,7.87,0,0,0-.31-4.73l.11-.19a8,8,0,0,1,.34,5.09S90.54,110.82,90.52,110.8Zm.21.23a6.4,6.4,0,0,0-.36-5.5l.12-.15a6.57,6.57,0,0,1,.39,5.78Zm5.92-2.64a4.69,4.69,0,0,1-2.22-3.18l-.29.05a5.18,5.18,0,0,0,2.44,3.58l0,.17a5.37,5.37,0,0,1-2.1-2.18h0a3.91,3.91,0,0,1-.47-1.54l-.28,0a5.13,5.13,0,0,0,2.73,4.08,2.85,2.85,0,0,1-.12.31,10,10,0,0,1-3.52,1.1c0,.14,0,.29-.07.43a11.77,11.77,0,0,0,3.14-.79c-.8.74-2.09.76-3.17,1,0,.08,0,.15,0,.23a13.41,13.41,0,0,0,2.08-.27,4.39,4.39,0,0,1-2.3.4,14.32,14.32,0,0,0,0-6.4l-.35,0a9.91,9.91,0,0,1,0,6.37l-.18,0a9.82,9.82,0,0,0,0-6.34l-.37,0a8.82,8.82,0,0,1,.11,6.31l-.17-.06a8.75,8.75,0,0,0-.14-6.28l-.37-.06a7.87,7.87,0,0,1,.27,6.22l-.16-.1a7.8,7.8,0,0,0-.32-6.17h-.09l.11-.1a8.32,8.32,0,0,0,4.56-.28,10.58,10.58,0,0,1,1.23,2.12,5.53,5.53,0,0,1-1.19-2,2.85,2.85,0,0,1-.31.12,4.89,4.89,0,0,0,1.57,2.5,2.26,2.26,0,0,1,0,.26,5.07,5.07,0,0,1-1.75-2.7l-.31.08a4.76,4.76,0,0,0,2,3C96.66,108.27,96.65,108.33,96.65,108.39Z"/><path class="c" d="M93,108v.52a8.92,8.92,0,0,0,1.61-.53,4.73,4.73,0,0,1-.28-.39A10.67,10.67,0,0,1,93,108Z"/><path class="c" d="M93,107.17c.32-.09.64-.19,1-.31a3.45,3.45,0,0,1-.19-.46,8.56,8.56,0,0,1-.83.23Z"/><path class="c" d="M93,107.34a4.84,4.84,0,0,1,0,.53,8.15,8.15,0,0,0,1.25-.38c-.1-.16-.18-.32-.26-.48A9.32,9.32,0,0,1,93,107.34Z"/><path class="c" d="M93.43,104.28c4.5,0,3.88,7.78-.61,7.33-4.31,0-3.75-7.83.61-7.33m0-.2c-4.61-.5-5.18,7.75-.61,7.73,4.74.45,5.36-7.7.61-7.73Z"/><path class="c" d="M118.19,109.09a10.84,10.84,0,0,0,2-.68c-.08-.09-.15-.18-.23-.26a9.13,9.13,0,0,1-1.72.57C118.2,108.84,118.19,109,118.19,109.09Z"/><path class="c" d="M118.06,110.43l0,.2a9.58,9.58,0,0,0,3.5-1.12l-.23-.14A7.18,7.18,0,0,1,118.06,110.43Z"/><path class="c" d="M118.18,109.26c0,.16,0,.31,0,.47a9.09,9.09,0,0,0,2.46-.9c-.11-.09-.22-.2-.32-.3A10.26,10.26,0,0,1,118.18,109.26Z"/><path class="c" d="M118.76,105.33a6.78,6.78,0,0,1-.9,0c0,.15.08.31.11.46.26-.06.52-.12.78-.2A1,1,0,0,1,118.76,105.33Z"/><path class="c" d="M118.88,106.23a3.77,3.77,0,0,1-.1-.43c-.26.07-.52.14-.78.19,0,.16.06.31.08.46C118.34,106.39,118.61,106.31,118.88,106.23Z"/><path class="c" d="M118.12,109.9c0,.12,0,.24,0,.36a7.14,7.14,0,0,0,3.07-1c-.14-.1-.28-.2-.41-.31A9.15,9.15,0,0,1,118.12,109.9Z"/><path class="c" d="M121,105.1c-3.7-3.56-8.15,2.25-5.29,5.69C119.28,114.28,124.09,108.49,121,105.1Zm-3.63-.83c.73.16,1.5-.14,2.22,0a6.79,6.79,0,0,1-2.5.1Zm-.87.37a7.29,7.29,0,0,0,3.62-.16l.15.08a6.83,6.83,0,0,1-3.9.16ZM115,109.28a6.07,6.07,0,0,1-.09-1.91A5.6,5.6,0,0,1,115,109.28Zm.36,1-.12-.27a5.65,5.65,0,0,0-.2-3.37,2.76,2.76,0,0,1,.08-.27A5.8,5.8,0,0,1,115.39,110.29Zm.34.5-.09-.12a7.87,7.87,0,0,0-.31-4.73l.11-.19a8,8,0,0,1,.34,5.09Zm.21.23a6.4,6.4,0,0,0-.36-5.5l.12-.16a6.6,6.6,0,0,1,.39,5.79Zm5.92-2.64a4.71,4.71,0,0,1-2.22-3.19l-.29.06a5.18,5.18,0,0,0,2.44,3.58l0,.16a5.35,5.35,0,0,1-2.1-2.17h0a3.91,3.91,0,0,1-.47-1.54l-.28,0a5.17,5.17,0,0,0,2.73,4.08c0,.1-.08.21-.12.31a10.26,10.26,0,0,1-3.52,1.1c0,.14,0,.29-.07.43a12.17,12.17,0,0,0,3.14-.8c-.79.74-2.08.77-3.17,1,0,.07,0,.15,0,.22a11.59,11.59,0,0,0,2.09-.27,4.43,4.43,0,0,1-2.31.41,14.33,14.33,0,0,0,0-6.4l-.34,0a10,10,0,0,1,0,6.37l-.18,0a9.85,9.85,0,0,0,0-6.35l-.37,0a8.77,8.77,0,0,1,.11,6.31l-.17-.07a8.77,8.77,0,0,0-.13-6.27l-.38-.06a7.85,7.85,0,0,1,.27,6.21l-.16-.1a7.78,7.78,0,0,0-.32-6.16l-.08,0,.1-.1a8.23,8.23,0,0,0,4.56-.28,11.16,11.16,0,0,1,1.23,2.12,5.41,5.41,0,0,1-1.19-2l-.31.12a4.89,4.89,0,0,0,1.57,2.5,2.17,2.17,0,0,1,0,.26,5.1,5.1,0,0,1-1.75-2.71,1.81,1.81,0,0,1-.31.09,4.85,4.85,0,0,0,2.05,3C121.87,108.26,121.86,108.32,121.86,108.38Z"/><path class="c" d="M118.21,108v.52a9.83,9.83,0,0,0,1.61-.54,2.76,2.76,0,0,1-.28-.39A9.26,9.26,0,0,1,118.21,108Z"/><path class="c" d="M118.16,107.16c.32-.09.64-.19,1-.31a4.1,4.1,0,0,1-.19-.46l-.83.23C118.13,106.8,118.14,107,118.16,107.16Z"/><path class="c" d="M118.17,107.33a4.71,4.71,0,0,1,0,.53,11.22,11.22,0,0,0,1.25-.38c-.1-.16-.18-.32-.26-.48C118.85,107.12,118.52,107.24,118.17,107.33Z"/><path class="c" d="M118.64,104.26c4.5,0,3.88,7.78-.61,7.34-4.31,0-3.75-7.83.61-7.34m0-.19c-4.61-.5-5.18,7.74-.61,7.73,4.74.44,5.37-7.7.61-7.73Z"/></svg>